<svg width="105" height="25" xmlns="http://www.w3.org/2000/svg" xmlns:xlink="http://www.w3.org/1999/xlink" overflow="hidden"><defs><clipPath id="clip0"><rect x="1142" y="412" width="105" height="25"/></clipPath></defs><g clip-path="url(#clip0)" transform="translate(-1142 -412)"><path d="M0 0C0 1.25717 1.0189 2.27658 2.27658 2.27658L22.7235 2.27658C23.9806 2.27658 25 1.25717 25 0L25-20.4469C25-21.7046 23.9806-22.7235 22.7235-22.7235L2.27658-22.7235C1.0189-22.7235 0-21.7046 0-20.4469Z" fill="#ED1D24" transform="matrix(1.00333 0 0 -1 1142.01 414.277)"/><path d="M0 0C-0.138268-4.7797-4.05621-8.61193-8.86907-8.61193-13.6824-8.61193-17.5999-4.7797-17.7381 0L-17.2989 0C-17.2616-3.74447-14.2146-6.7675-10.4615-6.7675-6.70831-6.7675-3.66182-3.74447-3.62406 0ZM4.11897 0C3.99652-6.18177-1.05308-11.1548-7.26394-11.1548-13.4748-11.1548-18.5239-6.18177-18.6468 0L-18.1815 0C-18.0336-5.02307-13.9151-9.04969-8.85632-9.04969-3.79753-9.04969 0.321436-5.02307 0.468888 0ZM-4.0853 0C-4.11285-3.5011-6.95985-6.33024-10.4666-6.33024-13.9743-6.33024-16.8203-3.5011-16.8478 0L-16.3769 0C-16.3784-0.0525522-16.3794-0.105104-16.3794-0.158167-16.3794-2.6771-14.3381-4.71898-11.8191-4.71898-9.30021-4.71898-7.25782-2.6771-7.25782-0.158167-7.25782-0.105104-7.25884-0.0525522-7.26088 -2.54904e-16ZM-10.4421 0.460725C-10.4145 3.96182-7.56854 6.79097-4.0608 6.79097-0.553584 6.79097 2.29291 3.96182 2.32046 0.460725L1.84902 0.460725C1.85106 0.513277 1.85157 0.565829 1.85157 0.618891 1.85157 3.13783-0.19031 5.17971-2.70873 5.17971-5.22818 5.17971-7.26955 3.13783-7.26955 0.618891-7.26955 0.565829-7.26904 0.513277-7.267 0.460725ZM-18.6468 0.460725C-18.5239 6.64198-13.4748 11.6156-7.26394 11.6156-1.05308 11.6156 3.99652 6.64198 4.11897 0.460725L3.65365 0.460725C3.50518 5.4838-0.612769 9.51042-5.67156 9.51042-10.7309 9.51042-14.8488 5.4838-14.9968 0.460725ZM-14.5279 0.460725C-14.3896 5.24042-10.4717 9.07214-5.6588 9.07214-0.845937 9.07214 3.07201 5.24042 3.21028 0.460725L2.77098 0.460725C2.73322 4.2052-0.313783 7.22822-4.06642 7.22822-7.81956 7.22822-10.8666 4.2052-10.9038 0.460725Z" fill="#FFFFFF" transform="matrix(1.00333 0 0 -1 1161.84 424.731)"/><path d="M0 0C0-0.516338 0.0821447-0.897979 0.246944-1.14492 0.477562-1.49544 0.783691-1.67096 1.16635-1.67096 1.46024-1.67096 1.71024-1.54748 1.91535-1.30003 2.12403-1.05002 2.22811-0.657157 2.22811-0.121941 2.22811 0.447459 2.12403 0.857672 1.91535 1.10768 1.70718 1.36125 1.43983 1.48779 1.11431 1.48779 0.794916 1.48779 0.529604 1.36432 0.317864 1.11686 0.106125 0.872979 0 0.501032 0 0M5.17512 0.863795 3.96642 1.07962C4.10213 1.56177 4.33581 1.9179 4.66796 2.14954 4.9996 2.38118 5.49298 2.49699 6.14708 2.49699 6.74148 2.49699 7.18332 2.42658 7.47415 2.28577 7.76497 2.14801 7.96906 1.97147 8.08589 1.75565 8.2058 1.54238 8.26549 1.15003 8.266 0.577564L8.25222-0.962266C8.25222-1.40003 8.27212-1.72402 8.31345-1.93372 8.35733-2.13984 8.43794-2.3623 8.55529-2.60006L7.23741-2.60006C7.20271-2.5123 7.15985-2.38271 7.10934-2.21025 7.08689-2.13219 7.07159-2.08066 7.06189-2.05566 6.83434-2.27454 6.59096-2.43934 6.33177-2.54853 6.07258-2.65771 5.79605-2.71282 5.50216-2.71282 4.98378-2.71282 4.57459-2.57353 4.27459-2.29495 3.97764-2.01688 3.82866-1.66483 3.82866-1.2388 3.82866-0.957164 3.89652-0.707159 4.03274-0.487766 4.16846-0.265822 4.35826-0.0969409 4.60163 0.018878 4.84807 0.137758 5.20216 0.240822 5.66339 0.328579 6.28636 0.444398 6.71699 0.552563 6.9573 0.652566L6.9573 0.784201C6.9573 1.03727 6.89454 1.21737 6.76801 1.32401 6.64147 1.4332 6.40269 1.48779 6.05218 1.48779 5.81493 1.48779 5.63023 1.44085 5.49757 1.34697 5.36492 1.25666 5.25726 1.09492 5.17512 0.863795M6.9573-0.206127C6.78689-0.262761 6.51698-0.330109 6.14708-0.408172 5.77717-0.486746 5.53533-0.563278 5.42155-0.63828 5.24808-0.760221 5.16083-0.915327 5.16083-1.10258 5.16083-1.28778 5.23073-1.44697 5.36951-1.58167 5.50829-1.71636 5.68533-1.7832 5.90064-1.7832 6.14044-1.7832 6.36953-1.70514 6.5879-1.5485 6.74913-1.43013 6.85474-1.28421 6.90526-1.11227 6.94046-0.999512 6.9573-0.785222 6.9573-0.469398ZM13.6733-2.60006 12.3411-2.60006 12.3411-0.0561237C12.3411 0.482154 12.3125 0.82961 12.2559 0.985736 12.1987 1.14543 12.1054 1.26891 11.9763 1.35666 11.8498 1.44442 11.6962 1.48779 11.5161 1.48779 11.2855 1.48779 11.0783 1.42554 10.8951 1.30003 10.712 1.17503 10.5854 1.00921 10.5161 0.802569 10.4497 0.596442 10.4166 0.21429 10.4166-0.342355L10.4166-2.60006 9.08439-2.60006 9.08439 2.38424 10.3217 2.38424 10.3217 1.65259C10.761 2.21536 11.314 2.49699 11.9809 2.49699 12.2748 2.49699 12.5431 2.44393 12.7865 2.3373 13.0299 2.23423 13.2136 2.10107 13.3365 1.93831 13.4631 1.77555 13.5498 1.59136 13.5978 1.38472 13.6478 1.17809 13.6728 0.882163 13.6733 0.49746ZM14.4916-2.60006 14.4916 4.28071 15.8233 4.28071 15.8233 0.629096 17.3836 2.38424 19.0234 2.38424 17.3029 0.563278 19.1469-2.60006 17.7106-2.60006 16.4448-0.361233 15.8233-1.0041 15.8233-2.60006ZM-1.32248-2.60006-1.32248 4.28071 0.00969409 4.28071 0.00969409 1.80259C0.420418 2.26536 0.907163 2.49699 1.46993 2.49699 2.08321 2.49699 2.58985 2.27658 2.9919 1.83525 3.39293 1.39748 3.59345 0.766344 3.59396-0.0561237 3.59396-0.907163 3.38834-1.56279 2.97762-2.02249 2.56944-2.48271 2.07352-2.71282 1.48881-2.71282 1.20105-2.71282 0.916857-2.64241 0.635728-2.50159 0.357661-2.35771 0.11735-2.14648-0.085206-1.8679L-0.085206-2.60006Z" fill="#414042" transform="matrix(1.00333 0 0 -1 1172.18 416.282)"/><path d="M0 0 2.64445 0.40307C2.7572-0.109696 2.98527-0.500011 3.32916-0.768895 3.67304-1.03166 4.15417-1.16278 4.77358-1.16278 5.45522-1.16278 5.96799-1.03829 6.31188-0.787773 6.543-0.612769 6.65882-0.37807 6.65882-0.0841856 6.65882 0.115309 6.59607 0.281129 6.47106 0.412764 6.33994 0.537257 6.04605 0.653076 5.58992 0.759711 3.46385 1.2286 2.11586 1.65667 1.54748 2.04443 0.759711 2.58169 0.365824 3.32916 0.365824 4.28581 0.365824 5.14858 0.706138 5.8736 1.38779 6.46137 2.06943 7.04914 3.12609 7.34302 4.55826 7.34302 5.92105 7.34302 6.93383 7.12108 7.59711 6.67719 8.25988 6.2333 8.7155 5.57665 8.96653 4.70827L6.48076 4.24856C6.37412 4.63582 6.17106 4.93276 5.87105 5.1394 5.57717 5.34553 5.15522 5.44859 4.60469 5.44859 3.9108 5.44859 3.41385 5.35165 3.11333 5.15777 2.91333 5.02001 2.81333 4.84194 2.81333 4.62357 2.81333 4.43581 2.90057 4.27663 3.07609 4.14499 3.31385 3.96999 4.13275 3.72304 5.53329 3.40416 6.94046 3.08527 7.92212 2.69445 8.47825 2.23219 9.02877 1.76279 9.30327 1.10972 9.30378 0.271945 9.30378-0.640831 8.92265-1.42554 8.15988-2.08219 7.39659-2.73833 6.268-3.06691 4.77358-3.06691 3.41691-3.06691 2.34138-2.7919 1.54748-2.24138 0.759711-1.69136 0.243883-0.944409 0 0M-3.29803 1.94086C-3.63529 1.82861-4.16999 1.69392-4.90164 1.5383-5.63329 1.38166-6.11187 1.2286-6.33637 1.0786-6.68076 0.834713-6.85219 0.525012-6.85219 0.150003-6.85219-0.218882-6.71495-0.537767-6.43994-0.80614-6.16493-1.07553-5.81442-1.20972-5.38941-1.20972-4.91389-1.20972-4.46081-1.05359-4.02968-0.740833-3.71029-0.503583-3.5011-0.21276-3.40059 0.131125-3.33222 0.35613-3.29854 0.784201-3.29803 1.41636ZM-6.82464 4.07968-9.21602 4.51081C-8.94765 5.47359-8.48488 6.18636-7.82773 6.64913-7.17159 7.11138-6.19606 7.34302-4.90164 7.34302-3.72661 7.34302-2.85108 7.20271-2.27556 6.92107-1.70055 6.64607-1.29697 6.293-1.06533 5.86136-0.82808 5.43635-0.709199 4.65163-0.709199 3.50722L-0.737261 0.431132C-0.737261-0.443887-0.696954-1.09084-0.61532-1.50973-0.528073-1.92249-0.368886-2.36638-0.137248-2.84139L-2.74445-2.84139C-2.81333-2.6669-2.89802-2.4072-2.99752-2.06331-3.0419-1.90719-3.07252-1.80361-3.0914-1.75361-3.54192-2.19138-4.02305-2.51995-4.53582-2.73833-5.04909-2.95721-5.59604-3.0664-6.17718-3.06691-7.20271-3.06691-8.01242-2.78884-8.60631-2.23168-9.19408-1.67606-9.48797-0.97196-9.48797-0.121941-9.48797 0.440826-9.35378 0.940837-9.08439 1.3786-8.8155 1.82249-8.44049 2.15974-7.95936 2.39138-7.47108 2.62863-6.77158 2.83527-5.85829 3.01027-4.62663 3.24191-3.77355 3.45722-3.29803 3.65722L-3.29803 3.91999C-3.29803 4.42663-3.42253 4.78582-3.67304 4.99858-3.92305 5.21746-4.395 5.32665-5.0894 5.32665-5.55829 5.32665-5.92411 5.23277-6.18636 5.04552-6.44912 4.86439-6.66188 4.54194-6.82464 4.07968M-25.1097 7.11802-22.6806 7.11802-22.6806 5.75829C-21.8117 6.81495-20.777 7.34302-19.5759 7.34302-18.9382 7.34302-18.3851 7.2119-17.9162 6.94913-17.4473 6.68637-17.0626 6.28943-16.7626 5.75829-16.3249 6.28943-15.8529 6.68637-15.3457 6.94913-14.8396 7.2119-14.2988 7.34302-13.7233 7.34302-12.9921 7.34302-12.3727 7.19302-11.8666 6.89301-11.3599 6.59913-10.9819 6.16442-10.7319 5.58941-10.5502 5.1644-10.4599 4.47612-10.4599 3.5261L-10.4599-2.84139-13.0957-2.84139-13.0957 2.85108C-13.0957 3.83835-13.186 4.47612-13.3671 4.76439-13.611 5.1394-13.986 5.32665-14.4927 5.32665-14.8621 5.32665-15.2085 5.2144-15.5335 4.9894-15.859 4.76439-16.0937 4.43275-16.2376 3.9955-16.3815 3.56386-16.4529 2.87915-16.4529 1.94086L-16.4529-2.84139-19.0882-2.84139-19.0882 2.61638C-19.0882 3.58528-19.1351 4.21081-19.229 4.49245-19.3229 4.77358-19.4698 4.98276-19.6698 5.12052-19.8637 5.25777-20.1295 5.32665-20.4673 5.32665-20.8739 5.32665-21.2392 5.21746-21.5643 4.99858-21.8903 4.7797-22.1245 4.46387-22.2684 4.05111-22.4061 3.63886-22.4745 2.95415-22.4745 1.99749L-22.4745-2.84139-25.1097-2.84139ZM-29.193-2.84139-31.8283-2.84139-31.8283 7.11802-29.3808 7.11802-29.3808 5.70217C-28.9614 6.37055-28.5864 6.81138-28.2547 7.02465-27.9175 7.2369-27.5363 7.34302-27.1108 7.34302-26.5108 7.34302-25.9327 7.1772-25.3756 6.84607L-26.1914 4.54857C-26.6358 4.83582-27.0481 4.9797-27.4297 4.9797-27.7991 4.9797-28.1113 4.87664-28.3675 4.67051-28.6241 4.47051-28.8272 4.10468-28.9772 3.57304-29.1216 3.04139-29.193 1.92861-29.193 0.234699ZM-35.6539 1.94086C-35.9911 1.82861-36.5258 1.69392-37.2575 1.5383-37.9891 1.38166-38.4672 1.2286-38.6922 1.0786-39.0366 0.834713-39.2085 0.525012-39.2085 0.150003-39.2085-0.218882-39.0708-0.537767-38.7958-0.80614-38.5208-1.07553-38.1702-1.20972-37.7452-1.20972-37.2697-1.20972-36.8172-1.05359-36.3855-0.740833-36.0661-0.503583-35.8569-0.21276-35.7569 0.131125-35.688 0.35613-35.6544 0.784201-35.6539 1.41636ZM-39.1805 4.07968-41.5718 4.51081C-41.303 5.47359-40.8402 6.18636-40.1836 6.64913-39.5274 7.11138-38.5514 7.34302-37.2575 7.34302-36.0824 7.34302-35.2069 7.20271-34.6314 6.92107-34.0559 6.64607-33.6528 6.293-33.4212 5.86136-33.1839 5.43635-33.065 4.65163-33.065 3.50722L-33.0931 0.431132C-33.0931-0.443887-33.0528-1.09084-32.9711-1.50973-32.8839-1.92249-32.7247-2.36638-32.4931-2.84139L-35.1003-2.84139C-35.1692-2.6669-35.2538-2.4072-35.3539-2.06331-35.3977-1.90719-35.4283-1.80361-35.4477-1.75361-35.8977-2.19138-36.3789-2.51995-36.8916-2.73833-37.4049-2.95721-37.9514-3.0664-38.533-3.06691-39.5585-3.06691-40.3682-2.78884-40.9621-2.23168-41.5504-1.67606-41.8438-0.97196-41.8438-0.121941-41.8438 0.440826-41.7096 0.940837-41.4402 1.3786-41.1718 1.82249-40.7963 2.15974-40.3152 2.39138-39.8269 2.62863-39.1269 2.83527-38.2141 3.01027-36.9825 3.24191-36.1289 3.45722-35.6539 3.65722L-35.6539 3.91999C-35.6539 4.42663-35.7789 4.78582-36.0289 4.99858-36.2789 5.21746-36.7513 5.32665-37.4447 5.32665-37.9136 5.32665-38.2799 5.23277-38.5427 5.04552-38.8055 4.86439-39.0182 4.54194-39.1805 4.07968M-42.8622-2.84139-45.498-2.84139-45.498 2.24138C-45.498 3.3164-45.5541 4.0108-45.6668 4.32357-45.7796 4.64194-45.9638 4.88888-46.2199 5.06389-46.4704 5.2394-46.7735 5.32665-47.1301 5.32665-47.5863 5.32665-47.996 5.20165-48.3587 4.95164-48.721 4.70164-48.9715 4.37051-49.1087 3.95774-49.2399 3.54498-49.3057 2.7822-49.3057 1.66943L-49.3057-2.84139-51.941-2.84139-51.941 7.11802-49.4935 7.11802-49.4935 5.65472C-48.6246 6.78025-47.5301 7.34302-46.2107 7.34302-45.6291 7.34302-45.0979 7.2369-44.6163 7.02465-44.1347 6.81801-43.7724 6.55219-43.528 6.22718-43.278 5.90166-43.1066 5.53329-43.0122 5.12052-42.9127 4.70827-42.8627 4.11693-42.8622 3.34803ZM-56.2987 7.11802-53.6629 7.11802-53.6629-2.8419-56.2987-2.8419ZM-56.2987 10.9069-53.6629 10.9069-53.6629 8.46856-56.2987 8.46856ZM-66.95 0-64.305 0.40307C-64.1917-0.109696-63.9642-0.500011-63.6203-0.768895-63.2759-1.03166-62.7948-1.16278-62.1759-1.16278-61.4942-1.16278-60.9815-1.03829-60.6376-0.787773-60.4064-0.612769-60.2906-0.37807-60.2906-0.0841856-60.2906 0.115309-60.3534 0.281129-60.4784 0.412764-60.609 0.537257-60.9034 0.653076-61.3595 0.759711-63.4856 1.2286-64.8331 1.65667-65.402 2.04443-66.1897 2.58169-66.5836 3.32916-66.5836 4.28581-66.5836 5.14858-66.2433 5.8736-65.5617 6.46137-64.88 7.04914-63.8234 7.34302-62.3917 7.34302-61.0284 7.34302-60.0156 7.12108-59.3523 6.67719-58.6896 6.2333-58.2334 5.57665-57.9829 4.70827L-60.4687 4.24856C-60.5748 4.63582-60.7784 4.93276-61.0784 5.1394-61.3723 5.34553-61.7942 5.44859-62.3448 5.44859-63.0381 5.44859-63.5356 5.35165-63.8356 5.15777-64.0361 5.02001-64.1361 4.84194-64.1361 4.62357-64.1361 4.43581-64.0484 4.27663-63.8734 4.14499-63.6361 3.96999-62.8167 3.72304-61.4162 3.40416-60.009 3.08527-59.0273 2.69445-58.4707 2.23219-57.9207 1.76279-57.6457 1.10972-57.6452 0.271945-57.6452-0.640831-58.0268-1.42554-58.7901-2.08219-59.5529-2.73833-60.6815-3.06691-62.1759-3.06691-63.5325-3.06691-64.6081-2.7919-65.402-2.24138-66.1897-1.69136-66.7056-0.944409-66.95-1.35949e-15" fill="#414042" transform="matrix(1.00333 0 0 -1 1237.66 431.657)"/></g></svg>