<svg width="114" height="39" xmlns="http://www.w3.org/2000/svg" xmlns:xlink="http://www.w3.org/1999/xlink" overflow="hidden"><defs><clipPath id="clip0"><rect x="316" y="669" width="114" height="39"/></clipPath></defs><g clip-path="url(#clip0)" transform="translate(-316 -669)"><path d="M13.1212 32.354 13.1212 14.4932C13.1212 13.8945 13.2709 10.5768 16.0149 8.45646 18.5842 6.46083 21.2035 6.41094 22.5256 6.36105 23.7479 6.31116 25.095 6.6105 25.095 6.6105L25.095 24.147C25.095 26.0429 24.0972 28.9116 21.7772 30.5829 19.4573 32.2543 16.9877 32.5786 15.1917 32.5786 13.7698 32.5536 13.1212 32.354 13.1212 32.354Z" fill="#E30613" fill-rule="evenodd" transform="matrix(1 0 0 1.00219 316 669)"/><path d="M0.124726 32.354 0.124726 14.4932C0.124726 13.8945 0.274398 10.5768 3.01838 8.45646 5.58775 6.46083 8.207 6.41094 9.5291 6.36105 10.7514 6.31116 12.0985 6.6105 12.0985 6.6105L12.0985 24.147C12.0985 26.0429 11.1007 28.9116 8.78074 30.5829 6.46083 32.2543 3.99125 32.5786 2.19519 32.5786 0.773304 32.5536 0.124726 32.354 0.124726 32.354Z" fill="#E30613" fill-rule="evenodd" transform="matrix(1 0 0 1.00219 316 669)"/><path d="M26.2175 32.354 26.2175 14.4932C26.2175 13.8945 26.3672 10.5768 29.1112 8.45646 31.6805 6.46083 34.2998 6.41094 35.6219 6.36105 36.8442 6.31116 38.1912 6.6105 38.1912 6.6105L38.1912 24.147C38.1912 26.0429 37.1934 28.9116 34.8735 30.5829 32.5536 32.2543 30.084 32.5786 28.288 32.5786 26.891 32.5536 26.2175 32.354 26.2175 32.354Z" fill="#E30613" fill-rule="evenodd" transform="matrix(1 0 0 1.00219 316 669)"/><path d="M17.6613 16.3142 20.53 16.3142 20.53 26.0179 17.6613 26.0179Z" fill="#FFFFFF" fill-rule="evenodd" transform="matrix(1 0 0 1.00219 316 669)"/><path d="M20.6547 14.3435C20.6547 15.1288 19.9623 15.7654 19.1081 15.7654 18.2539 15.7654 17.5615 15.1288 17.5615 14.3435 17.5615 13.5583 18.2539 12.9217 19.1081 12.9217 19.9623 12.9217 20.6547 13.5583 20.6547 14.3435Z" fill="#FFFFFF" fill-rule="evenodd" transform="matrix(1 0 0 1.00219 316 669)"/><path d="M7.05952 16.3641 10.2775 16.4389C10.2775 16.4389 10.7265 13.0963 5.91203 13.0963 2.84376 13.0963 1.49672 14.9672 1.49672 16.6385 1.49672 17.5116 1.84595 18.9335 4.26565 19.9313 6.68534 20.954 7.28403 22.0516 7.28403 22.8998 7.28403 23.723 6.26127 23.9475 5.8372 23.9475 5.41313 23.9475 4.61488 23.7729 4.58993 22.5256L1.54661 22.5256C1.54661 22.5256 1.27221 25.7186 5.73742 25.8433 9.70372 25.9431 10.8013 23.249 10.6766 22.0516 10.5768 21.3033 10.477 19.7816 7.35886 18.2101 4.2407 16.6385 4.66477 16.3392 4.73961 15.7155 4.81444 15.0919 5.98687 14.9173 6.68534 15.2915 7.25908 15.5908 7.05952 16.3641 7.05952 16.3641Z" fill="#FFFFFF" fill-rule="evenodd" transform="matrix(1 0 0 1.00219 316 669)"/><path d="M33.1772 16.3641 36.3952 16.4389C36.3952 16.4389 36.8442 13.0963 32.0298 13.0963 28.9615 13.0963 27.6394 14.9672 27.6394 16.6385 27.6394 17.5116 27.9886 18.9335 30.4083 19.9313 32.828 20.954 33.4267 22.0516 33.4267 22.8998 33.4267 23.723 32.4039 23.9475 31.9799 23.9475 31.5558 23.9475 30.7575 23.7729 30.7326 22.5256L27.6893 22.5256C27.6893 22.5256 27.4149 25.7186 31.8801 25.8433 35.8464 25.9431 36.944 23.249 36.8193 22.0516 36.7444 21.3282 36.6197 19.8315 33.5015 18.26 30.3834 16.6884 30.8074 16.3641 30.8823 15.7405 30.9571 15.1168 32.1295 14.9422 32.828 15.3164 33.3768 15.5908 33.1772 16.3641 33.1772 16.3641Z" fill="#FFFFFF" fill-rule="evenodd" transform="matrix(1 0 0 1.00219 316 669)"/><path d="M40.0871 25.519 40.0871 22.7751C40.6109 23.274 41.035 23.5234 41.3842 23.5234 41.5838 23.5234 41.7584 23.4236 41.8582 23.249 41.9829 23.0744 42.0328 22.8249 42.0328 22.5256 42.0328 22.3011 41.9829 22.0766 41.8831 21.877 41.7834 21.6775 41.6337 21.428 41.3842 21.1287 40.8105 20.4302 40.4114 19.7567 40.1619 19.158 39.9125 18.5593 39.7877 17.8858 39.7877 17.1374 39.7877 16.1147 39.9873 15.2915 40.3864 14.6429 40.7856 13.9943 41.2845 13.67 41.9081 13.67 42.3571 13.67 42.8311 13.8197 43.2801 14.144L43.2801 16.7882C42.8061 16.3641 42.407 16.1396 42.1077 16.1396 41.9081 16.1396 41.7584 16.2144 41.6337 16.3891 41.509 16.5387 41.4591 16.7632 41.4591 17.0626 41.4591 17.5615 41.7335 18.1103 42.2823 18.7339 42.6066 19.1081 42.9309 19.607 43.2551 20.2805 43.5794 20.9291 43.754 21.7024 43.754 22.5755 43.754 23.5982 43.5295 24.4214 43.1055 25.095 42.6814 25.7685 42.1077 26.0928 41.4591 26.0928 40.9851 26.0429 40.5361 25.8683 40.0871 25.519Z" fill="#1D1D1B" fill-rule="evenodd" transform="matrix(1 0 0 1.00219 316 669)"/><path d="M44.6271 14.7177C44.6271 14.1939 44.7269 13.7698 44.9265 13.3956 45.126 13.0464 45.3505 12.8468 45.6249 12.8468 45.8993 12.8468 46.1488 13.0214 46.3234 13.3956 46.523 13.7449 46.6228 14.1939 46.6228 14.7177 46.6228 15.2166 46.523 15.6656 46.3234 16.0149 46.1238 16.3891 45.8993 16.5637 45.6249 16.5637 45.3505 16.5637 45.126 16.3891 44.9265 16.0149 44.7269 15.6407 44.6271 15.2166 44.6271 14.7177ZM44.8018 17.6363 46.3484 17.6363 46.3484 25.7435 44.8018 25.7435 44.8018 17.6363Z" fill="#1D1D1B" fill-rule="evenodd" transform="matrix(1 0 0 1.00219 316 669)"/><path d="M47.3711 25.519 47.3711 22.7751C47.87 23.274 48.2941 23.5234 48.6433 23.5234 48.8429 23.5234 48.9926 23.4236 49.1173 23.249 49.242 23.0744 49.2919 22.8249 49.2919 22.5256 49.2919 22.3011 49.242 22.0766 49.1422 21.877 49.0424 21.6775 48.8928 21.428 48.6683 21.1287 48.1195 20.4302 47.7203 19.7567 47.4709 19.158 47.2214 18.5593 47.0967 17.8608 47.0967 17.1374 47.0967 16.1147 47.2963 15.2915 47.6705 14.6429 48.0446 13.9943 48.5435 13.67 49.1672 13.67 49.6162 13.67 50.0652 13.8197 50.5142 14.144L50.5142 16.7882C50.0403 16.3641 49.6411 16.1396 49.3667 16.1396 49.1672 16.1396 49.0175 16.2144 48.8928 16.3891 48.7681 16.5387 48.7182 16.7632 48.7182 17.0626 48.7182 17.5615 48.9926 18.1103 49.5164 18.7339 49.8407 19.1081 50.165 19.607 50.4893 20.2805 50.8136 20.9291 50.9882 21.7024 50.9882 22.5755 50.9882 23.5982 50.7637 24.4214 50.3396 25.095 49.9155 25.7685 49.3667 26.0928 48.7182 26.0928 48.2691 26.0429 47.8201 25.8683 47.3711 25.519Z" fill="#1D1D1B" fill-rule="evenodd" transform="matrix(1 0 0 1.00219 316 669)"/><path d="M51.6617 13.9694 55.653 13.9694 55.653 16.6635 54.5055 16.6635 54.5055 25.7435 52.8092 25.7435 52.8092 16.6635 51.6617 16.6635Z" fill="#1D1D1B" fill-rule="evenodd" transform="matrix(1 0 0 1.00219 316 669)"/><path d="M56.5759 13.9943 59.8188 13.9943 59.8188 16.5138 58.1724 16.5138 58.1724 18.684 59.5943 18.684 59.5943 21.1287 58.1724 21.1287 58.1724 23.249 59.8188 23.249 59.8188 25.7685 56.5759 25.7685Z" fill="#1D1D1B" fill-rule="evenodd" transform="matrix(1 0 0 1.00219 316 669)"/><path d="M64.3339 22.9746 64.3339 25.7685C64.0346 25.9431 63.7602 26.0429 63.5357 26.0429 62.7125 26.0429 62.0389 25.4691 61.54 24.2967 61.0162 23.1243 60.7667 21.6026 60.7667 19.7068 60.7667 17.9357 61.0162 16.4888 61.54 15.3414 62.0639 14.1939 62.7125 13.6201 63.4858 13.6201 63.7851 13.6201 64.0845 13.695 64.3339 13.8446L64.3339 16.6385C64.0595 16.4639 63.8101 16.3891 63.5606 16.3891 63.1864 16.3891 62.8871 16.7133 62.6376 17.337 62.3882 17.9606 62.2635 18.7838 62.2635 19.7567 62.2635 20.8044 62.3882 21.6525 62.6376 22.2761 62.8871 22.8998 63.2114 23.1991 63.6105 23.1991 63.835 23.249 64.0845 23.1492 64.3339 22.9746Z" fill="#1D1D1B" fill-rule="evenodd" transform="matrix(1 0 0 1.00219 316 669)"/><path d="M65.3567 13.9943 66.9033 13.9943 66.9033 18.3597 68.2503 18.3597 68.2503 13.9943 69.7969 13.9943 69.7969 25.7435 68.2503 25.7435 68.2503 20.8543 66.9033 20.8543 66.9033 25.7435 65.3567 25.7435Z" fill="#1D1D1B" fill-rule="evenodd" transform="matrix(1 0 0 1.00219 316 669)"/><path d="M72.94 13.9943 74.4866 13.9943 74.4866 19.5322 74.5116 19.5322 75.9834 13.9943 77.6298 13.9943 76.0333 20.0061 77.5549 25.7435 75.8586 25.7435 74.5116 20.8792 74.4866 20.8792 74.4866 25.7435 72.94 25.7435Z" fill="#1D1D1B" fill-rule="evenodd" transform="matrix(1 0 0 1.00219 316 669)"/><path d="M78.3781 13.9943 79.9247 13.9943 79.9247 18.3597 81.2718 18.3597 81.2718 13.9943 82.8184 13.9943 82.8184 25.7435 81.2718 25.7435 81.2718 20.8792 79.9247 20.8792 79.9247 25.7435 78.3781 25.7435Z" fill="#1D1D1B" fill-rule="evenodd" transform="matrix(1 0 0 1.00219 316 669)"/><path d="M88.5309 25.7435 87.0591 25.7435 86.8096 23.7729 85.3129 23.7729 85.0635 25.7435 83.6166 25.7435 85.288 13.9943 86.8845 13.9943 88.5309 25.7435ZM86.5352 21.6775C86.3107 19.9313 86.161 18.26 86.0613 16.6884L86.0363 16.6884C85.9116 18.3098 85.7619 19.9812 85.5624 21.6775L86.5352 21.6775Z" fill="#1D1D1B" fill-rule="evenodd" transform="matrix(1 0 0 1.00219 316 669)"/><path d="M89.2792 13.9943 91.1002 13.9943C91.8486 13.9943 92.4223 14.3186 92.8464 14.9672 93.2705 15.6158 93.495 16.4888 93.495 17.5864 93.495 18.1602 93.4201 18.709 93.2455 19.2328 93.0709 19.7567 92.8464 20.1558 92.547 20.4302L93.7943 25.7186 92.1479 25.7186 90.8757 20.3803 90.8508 20.3803 90.8508 25.7186 89.2792 25.7186 89.2792 13.9943ZM90.8508 16.2893 90.8508 19.0832C91.5492 19.0582 91.8985 18.6341 91.8985 17.8359 91.8985 17.2871 91.8236 16.888 91.649 16.6635 91.4993 16.414 91.2249 16.2893 90.8508 16.2893Z" fill="#1D1D1B" fill-rule="evenodd" transform="matrix(1 0 0 1.00219 316 669)"/><path d="M94.7422 13.9694 96.6131 13.9694 96.6131 25.7435 94.7422 25.7435Z" fill="#1D1D1B" fill-rule="evenodd" transform="matrix(1 0 0 1.00219 316 669)"/><path d="M97.6608 25.519 97.6608 22.7751C98.1597 23.274 98.5838 23.5234 98.933 23.5234 99.1326 23.5234 99.2823 23.4236 99.407 23.249 99.5317 23.0744 99.5816 22.8249 99.5816 22.5256 99.5816 22.3011 99.5317 22.0766 99.4319 21.877 99.3322 21.6775 99.1825 21.428 98.958 21.1287 98.4092 20.4302 98.0101 19.7567 97.7606 19.158 97.5112 18.5593 97.3864 17.8608 97.3864 17.1374 97.3864 16.1147 97.586 15.2915 97.9602 14.6429 98.3344 13.9943 98.8333 13.67 99.4569 13.67 99.9059 13.67 100.355 13.8197 100.804 14.144L100.804 16.7882C100.33 16.3641 99.9309 16.1396 99.6565 16.1396 99.4569 16.1396 99.3072 16.2144 99.1825 16.3891 99.0578 16.5387 99.0079 16.7632 99.0079 17.0626 99.0079 17.5615 99.2823 18.1103 99.8061 18.7339 100.13 19.1081 100.455 19.607 100.779 20.2805 101.103 20.9291 101.278 21.7024 101.278 22.5755 101.278 23.5982 101.053 24.4214 100.629 25.095 100.205 25.7685 99.6565 26.0928 99.0079 26.0928 98.5339 26.0429 98.0849 25.8683 97.6608 25.519Z" fill="#1D1D1B" fill-rule="evenodd" transform="matrix(1 0 0 1.00219 316 669)"/><path d="M102.849 13.9943 104.72 13.9943C104.995 16.5387 105.194 18.709 105.344 20.53L105.494 18.709C105.568 18.0105 105.618 17.312 105.693 16.6385L105.993 13.9943 107.913 13.9943 108.662 25.7435 107.19 25.7435 106.791 17.6613 105.868 25.7435 104.87 25.7435 103.897 17.6363 103.523 25.7435 102.101 25.7435 102.849 13.9943Z" fill="#1D1D1B" fill-rule="evenodd" transform="matrix(1 0 0 1.00219 316 669)"/><path d="M114 25.7435 112.528 25.7435 112.279 23.7729 110.782 23.7729 110.533 25.7435 109.086 25.7435 110.732 13.9694 112.304 13.9694 114 25.7435ZM112.029 21.6775C111.83 19.9313 111.655 18.26 111.555 16.6884L111.53 16.6884C111.431 18.3098 111.256 19.9812 111.056 21.6775L112.029 21.6775Z" fill="#1D1D1B" fill-rule="evenodd" transform="matrix(1 0 0 1.00219 316 669)"/></g></svg>