<?xml version="1.0" encoding="utf-8"?>
<!-- Generator: Adobe Illustrator 24.0.0, SVG Export Plug-In . SVG Version: 6.00 Build 0)  -->
<svg version="1.1" id="Layer_1" xmlns="http://www.w3.org/2000/svg" xmlns:xlink="http://www.w3.org/1999/xlink" x="0px" y="0px"
	 viewBox="0 0 158.3 120.3" style="enable-background:new 0 0 158.3 120.3;" xml:space="preserve">
<style type="text/css">
	.st0{fill:#1D1D1B;}
</style>
<g>
	<path class="st0" d="M158.3,107.3c0,0,0-3.9,0-3.9c0-0.4-0.1-0.7-0.2-0.9c0-0.1-14.8-20.4-14.8-20.4v-74c0-4.5-3.6-8.1-8.1-8.1
		H21.8c-4.5,0-8.1,3.6-8.1,8.1v74.1c0,0-13,19.6-13.3,20C0.2,102.5,0,103,0,103.5s0,3.9,0,3.9c0,7.1,5.8,13,13,13h132.4
		C152.5,120.3,158.3,114.5,158.3,107.3z M17.7,80.8V14.2h121.5v66.5H17.7z M16.8,84.8h123.4l12.2,16.7H95.1c-0.6,0-1.2,0.3-1.5,0.7
		l-2.4,2.9h-24l-2.5-2.9c-0.4-0.5-0.9-0.7-1.5-0.7H5.7L16.8,84.8z M21.8,4h113.4c2.3,0,4.1,1.8,4.1,4.1v2.1H17.7V8.1
		C17.7,5.8,19.6,4,21.8,4z M154.3,107.3c0,4.9-4,9-9,9H13c-4.9,0-9-4-9-9v-1.9h58.3l2.5,2.9c0.4,0.5,0.9,0.7,1.5,0.7h25.8
		c0.6,0,1.2-0.3,1.5-0.7l2.4-2.9h58.3V107.3z"/>
	<path class="st0" d="M115.8,40.5v8c-2.2,0.8-3.8,2.9-3.8,5.4c0,3.2,2.6,5.8,5.8,5.8c3.2,0,5.8-2.6,5.8-5.8c0-2.5-1.6-4.6-3.8-5.4
		v-8c0-1.1-0.9-2-2-2C116.7,38.5,115.8,39.4,115.8,40.5z M117.8,55.7c-1,0-1.8-0.8-1.8-1.8c0-1,0.8-1.8,1.8-1.8c1,0,1.8,0.8,1.8,1.8
		C119.5,54.9,118.8,55.7,117.8,55.7z"/>
	<path class="st0" d="M122.6,61.3c-0.3-1.1-1.4-1.7-2.5-1.4c-1.1,0.3-1.7,1.4-1.4,2.5l2,7h-6l2-7c0.3-1.1-0.3-2.2-1.4-2.5
		c-1.1-0.3-2.2,0.3-2.5,1.4l-2.2,7.6l0,0.1c-0.2,1.1,0,2.2,0.7,3c0.7,0.8,1.7,1.3,2.8,1.3h7.1c1.1,0,2.2-0.5,2.8-1.3
		c0.7-0.8,0.9-1.9,0.7-3L122.6,61.3z"/>
	<path class="st0" d="M114.5,38.7c2.3-0.7,2.6-2,2.6-2.8c0-0.7-0.3-2.1-2.6-2.8L78.7,22.7c-1.9-0.6-5-0.6-6.9,0L36.1,33.2
		c-2.3,0.7-2.6,2-2.6,2.8c0,0.7,0.3,2.1,2.6,2.8l12.6,3.7v10.9c0,1.6,0.7,3.8,2.2,5.1c5.8,5.2,14.7,8.2,24.4,8.2
		c9.7,0,18.6-3,24.4-8.2c1.4-1.3,2.2-3.5,2.2-5.1V42.5L114.5,38.7z M72.9,26.5c1.2-0.3,3.5-0.3,4.6,0l32.1,9.5l-32.1,9.5
		c-1.2,0.3-3.5,0.3-4.6,0L40.8,36L72.9,26.5z M97.9,53.4c0,0.7-0.4,1.8-0.8,2.1c-5,4.5-13.2,7.2-21.8,7.2c-8.6,0-16.7-2.7-21.8-7.2
		c-0.4-0.4-0.8-1.5-0.8-2.1v-9.8l19.2,5.7c0.9,0.3,2.2,0.4,3.4,0.4c1.3,0,2.5-0.2,3.4-0.4l19.2-5.7V53.4z"/>
</g>
</svg>
