<?xml version="1.0" encoding="utf-8"?>
<!-- Generator: Adobe Illustrator 24.0.0, SVG Export Plug-In . SVG Version: 6.00 Build 0)  -->
<svg version="1.1" id="Layer_1" xmlns="http://www.w3.org/2000/svg" xmlns:xlink="http://www.w3.org/1999/xlink" x="0px" y="0px"
	 viewBox="0 0 163.3 145.5" style="enable-background:new 0 0 163.3 145.5;" xml:space="preserve">
<style type="text/css">
	.st0{fill:#1D1D1B;}
</style>
<g>
	<path class="st0" d="M131.5,145.5c0.6,0,1.2-0.1,1.7-0.4l8.4-3.9c1-0.5,1.8-1.3,2.1-2.3c0.4-1,0.3-2.1-0.1-3.1l-9.2-19.7l14.3-2.6
		c1.9-0.3,2.4-1.6,2.6-2.1c0.1-0.5,0.3-1.9-1.2-3.1l-43-36.5c-0.9-0.7-1.7-0.9-2.2-0.9c-0.7,0-1.4,0.3-1.9,0.8
		c-0.4,0.4-0.9,1.1-0.9,2.4l0.3,56.4c0,2.1,1.4,3.1,2.8,3.1c0.5,0,1.3-0.1,2.2-0.9l11.1-9.3l9.2,19.7
		C128.5,144.6,130,145.5,131.5,145.5z M119.8,118.4c-0.1,0-0.3,0-0.4,0c-0.5,0-0.9,0.2-1.3,0.5l-11.5,9.6l-0.3-52L146,110l-14.8,2.6
		c-0.6,0.1-1.1,0.5-1.4,1c-0.3,0.6-0.3,1.2,0,1.8l10.3,22c0,0,0,0.1-0.1,0.1l-8.4,3.9c0,0-0.1,0.1-0.2-0.1l-10.3-22
		C120.9,118.9,120.4,118.5,119.8,118.4z"/>
	<path class="st0" d="M30.4,142.7c0.2,0.1,0.6,0.2,1.1,0.2c0.6,0,1.5-0.2,2.4-1l8.3-6.7l0.1-0.1c0.3-0.2,0.7-0.2,0.9,0l8,6.8
		c1.5,1.4,2.9,1.1,3.4,0.9c0.5-0.2,1.8-1,1.8-3.1v-27.8c0-1.1-0.9-2-2-2s-2,0.9-2,2v25.8l-6.5-5.4c-1.8-1.7-4.6-1.7-6.4-0.1
		l-6.9,5.6V112c0-1.1-0.9-2-2-2c-1.1,0-2,0.9-2,2v27.6C28.7,141.7,29.9,142.5,30.4,142.7z"/>
	<path class="st0" d="M21.9,95.4c0.3,0.8,0.4,2,0.4,3.2c0.1,2.2,0.2,4.6,1.9,6.3c1.7,1.7,4.1,1.8,6.3,1.9c1.2,0,2.4,0.1,3.2,0.4
		c0.7,0.3,1.6,1.1,2.4,1.9c1.6,1.5,3.4,3.2,5.9,3.2c2.5,0,4.3-1.7,5.9-3.2c0.8-0.8,1.7-1.6,2.4-1.9c0.8-0.3,2-0.4,3.2-0.4
		c2.2-0.1,4.6-0.2,6.3-1.9c1.7-1.7,1.8-4.1,1.9-6.3c0-1.2,0.1-2.4,0.4-3.2c0.3-0.7,1.1-1.6,1.9-2.4c1.5-1.6,3.2-3.4,3.2-5.9
		c0-2.5-1.7-4.3-3.2-5.9c-0.8-0.8-1.6-1.7-1.9-2.4c-0.3-0.8-0.4-2-0.4-3.2c-0.1-2.2-0.2-4.6-1.9-6.3c-1.7-1.7-4.1-1.8-6.3-1.9
		c-1.2,0-2.4-0.1-3.2-0.4c-0.7-0.3-1.6-1.1-2.4-1.9c-1.6-1.5-3.4-3.2-5.9-3.2c-2.5,0-4.3,1.7-5.9,3.2c-0.8,0.8-1.7,1.6-2.4,1.9
		c-0.8,0.3-2,0.4-3.2,0.4c-2.2,0.1-4.6,0.2-6.3,1.9c-1.7,1.7-1.8,4.1-1.9,6.3c0,1.2-0.1,2.4-0.4,3.2c-0.3,0.7-1.1,1.6-1.9,2.4
		c-1.5,1.6-3.2,3.4-3.2,5.9c0,2.5,1.7,4.3,3.2,5.9C20.8,93.8,21.6,94.7,21.9,95.4z M22.9,83.9c1-1.1,2.1-2.2,2.7-3.6
		c0.6-1.4,0.6-3,0.7-4.5c0.1-1.5,0.1-3,0.7-3.6c0.6-0.6,2.1-0.6,3.6-0.7c1.5-0.1,3.1-0.1,4.5-0.7c1.4-0.6,2.5-1.6,3.6-2.7
		c1.1-1,2.3-2.1,3.2-2.1c0.9,0,2.1,1.1,3.2,2.1c1.1,1,2.2,2.1,3.6,2.7c1.4,0.6,3,0.6,4.5,0.7c1.5,0.1,3,0.1,3.6,0.7
		c0.6,0.6,0.6,2.1,0.7,3.6c0.1,1.5,0.1,3.1,0.7,4.5c0.6,1.4,1.6,2.5,2.7,3.6c1,1.1,2.1,2.3,2.1,3.2c0,0.9-1.1,2.1-2.1,3.2
		c-1,1.1-2.1,2.2-2.7,3.6c-0.6,1.4-0.6,3-0.7,4.5c-0.1,1.5-0.1,3-0.7,3.6c-0.6,0.6-2.1,0.6-3.6,0.7c-1.5,0.1-3.1,0.1-4.6,0.7
		c-1.4,0.6-2.5,1.6-3.6,2.7c-1.1,1-2.3,2.1-3.2,2.1c-0.9,0-2.1-1.1-3.2-2.1c-1.1-1-2.2-2.1-3.6-2.7c-1.4-0.6-3-0.6-4.6-0.7
		c-1.5-0.1-3-0.1-3.6-0.7c-0.6-0.6-0.6-2.1-0.7-3.6c-0.1-1.5-0.1-3.1-0.7-4.5c-0.6-1.4-1.6-2.5-2.7-3.6c-1-1.1-2.1-2.3-2.1-3.2
		C20.8,86.2,21.9,85,22.9,83.9z"/>
	<path class="st0" d="M41.9,98.8c6.5,0,11.7-5.3,11.7-11.7s-5.3-11.7-11.7-11.7c-6.5,0-11.7,5.3-11.7,11.7S35.5,98.8,41.9,98.8z
		 M41.9,79.4c4.3,0,7.7,3.5,7.7,7.7c0,4.3-3.5,7.7-7.7,7.7c-4.3,0-7.7-3.5-7.7-7.7C34.2,82.9,37.7,79.4,41.9,79.4z"/>
	<path class="st0" d="M40.5,43.5c0,1.1,0.9,2,2,2h75.8c1.1,0,2-0.9,2-2s-0.9-2-2-2H42.5C41.4,41.5,40.5,42.4,40.5,43.5z"/>
	<path class="st0" d="M54.3,31.1c-1.1,0-2,0.9-2,2s0.9,2,2,2h52.4c1.1,0,2-0.9,2-2s-0.9-2-2-2H54.3z"/>
	<path class="st0" d="M155.7,0H7.6C3.4,0,0,3.4,0,7.6v109c0,4.2,3.4,7.6,7.6,7.6h15c1.1,0,2-0.9,2-2c0-1.1-0.9-2-2-2h-15
		c-2,0-3.6-1.6-3.6-3.6V7.6C4,5.6,5.6,4,7.6,4h148.1c2,0,3.6,1.6,3.6,3.6v109c0,2-1.6,3.6-3.6,3.6h-10.6c-1.1,0-2,0.9-2,2
		c0,1.1,0.9,2,2,2h10.6c4.2,0,7.6-3.4,7.6-7.6V7.6C163.3,3.4,159.9,0,155.7,0z"/>
	<path class="st0" d="M95.3,124.2c1.1,0,2-0.9,2-2c0-1.1-0.9-2-2-2H61.8c-1.1,0-2,0.9-2,2c0,1.1,0.9,2,2,2H95.3z"/>
	<path class="st0" d="M150.2,88.4v-7c0-1.1-0.9-2-2-2c-1.1,0-2,0.9-2,2v7c0,1.1,0.9,2,2,2C149.3,90.4,150.2,89.5,150.2,88.4z"/>
	<path class="st0" d="M144.5,11.6H49.2c-1.1,0-2,0.9-2,2c0,1.1,0.9,2,2,2h95.2c1,0,1.8,0.8,1.8,1.8v52.7c0,1.1,0.9,2,2,2
		c1.1,0,2-0.9,2-2V17.4C150.2,14.2,147.6,11.6,144.5,11.6z"/>
	<path class="st0" d="M18.9,15.6H34c1.1,0,2-0.9,2-2c0-1.1-0.9-2-2-2H18.9c-3.2,0-5.8,2.6-5.8,5.8v39.5c0,1.1,0.9,2,2,2s2-0.9,2-2
		V17.4C17.1,16.4,17.9,15.6,18.9,15.6z"/>
</g>
</svg>
