<?xml version="1.0" encoding="utf-8"?>
<!-- Generator: Adobe Illustrator 24.0.0, SVG Export Plug-In . SVG Version: 6.00 Build 0)  -->
<svg version="1.1" id="Layer_1" xmlns="http://www.w3.org/2000/svg" xmlns:xlink="http://www.w3.org/1999/xlink" x="0px" y="0px"
	 viewBox="0 0 175 149.8" style="enable-background:new 0 0 175 149.8;" xml:space="preserve">
<style type="text/css">
	.st0{fill:#1D1D1B;}
</style>
<g>
	<path class="st0" d="M14.1,149.8h146.7c7.8,0,14.1-6.3,14.1-14.1c0,0,0-3.7,0-4.2c0-0.5-0.1-0.9-0.4-1.3
		c-0.3-0.4-16.3-22.3-16.3-22.3V25.7c0-4.8-3.9-8.7-8.7-8.7h-1.7c-1.1,0-2,0.9-2,2s0.9,2,2,2h1.7c2.6,0,4.7,2.1,4.7,4.7v80.7H19.2
		V25.7c0-2.6,2.1-4.7,4.7-4.7h50.2c1.1,0,2-0.9,2-2s-0.9-2-2-2H23.9c-4.8,0-8.7,3.9-8.7,8.7v82.1c0,0-14.6,22-14.8,22.3
		c-0.2,0.3-0.4,0.9-0.4,1.3s0,4.2,0,4.2C0,143.4,6.3,149.8,14.1,149.8z M171,135.6c0,5.6-4.5,10.1-10.1,10.1H14.1
		c-5.6,0-10.1-4.5-10.1-10.1v-2.3h64.7l2.8,5c0.4,0.6,1,1,1.7,1h28.6c0.7,0,1.4-0.4,1.7-1l2.8-5H171V135.6z M155.3,110.4l13.8,18.9
		h-63.9c-0.7,0-1.4,0.4-1.7,1l-2.8,5H74.4l-2.8-5c-0.4-0.6-1-1-1.7-1H5.7l12.6-18.9H155.3z"/>
	<path class="st0" d="M79.2,60.4c0-9.4-7.6-17-17-17c-9.4,0-17,7.6-17,17s7.6,17,17,17C71.5,77.4,79.2,69.8,79.2,60.4z M49.1,60.4
		c0-7.2,5.8-13,13-13c7.2,0,13,5.8,13,13s-5.8,13-13,13C54.9,73.4,49.1,67.6,49.1,60.4z"/>
	<path class="st0" d="M29.9,98.6c-0.2,1.1,0.6,2.1,1.7,2.3c0.1,0,0.2,0,0.3,0c1,0,1.8-0.7,2-1.7c1.2-8.1,8.3-14.1,16.4-14.1H74
		c8.1,0,15.2,6,16.4,14.1c0.2,1.1,1.2,1.8,2.3,1.7c1.1-0.2,1.8-1.2,1.7-2.3c-1.5-10-10.3-17.5-20.4-17.5H50.3
		C40.2,81.1,31.4,88.6,29.9,98.6z"/>
	<path class="st0" d="M95.6,55.6c0.2,0.1,0.5,0.1,0.7,0.1c0.6,0,1.1-0.2,1.5-0.7l13.5-14.7h20.5c5.7,0,10.3-4.6,10.3-10.3V10.3
		c0-5.7-4.6-10.3-10.3-10.3H90.1c-5.7,0-10.3,4.6-10.3,10.3V30c0,5.7,4.6,10.3,10.3,10.3h4.2v13.4C94.3,54.6,94.8,55.3,95.6,55.6z
		 M90.1,36.3c-3.5,0-6.3-2.8-6.3-6.3V10.3c0-3.5,2.8-6.3,6.3-6.3h41.7c3.5,0,6.3,2.8,6.3,6.3V30c0,3.5-2.8,6.3-6.3,6.3h-21.4
		c-0.6,0-1.1,0.2-1.5,0.7L98.3,48.6V38.3c0-1.1-0.9-2-2-2H90.1z"/>
	<path class="st0" d="M128.2,15c0-1.1-0.9-2-2-2H95.7c-1.1,0-2,0.9-2,2s0.9,2,2,2h30.6C127.4,17,128.2,16.1,128.2,15z"/>
	<path class="st0" d="M121.5,23.6h-21c-1.1,0-2,0.9-2,2s0.9,2,2,2h21c1.1,0,2-0.9,2-2S122.6,23.6,121.5,23.6z"/>
</g>
</svg>
