<?xml version="1.0" encoding="utf-8"?>
<!-- Generator: Adobe Illustrator 24.0.0, SVG Export Plug-In . SVG Version: 6.00 Build 0)  -->
<svg version="1.1" id="Layer_1" xmlns="http://www.w3.org/2000/svg" xmlns:xlink="http://www.w3.org/1999/xlink" x="0px" y="0px"
	 viewBox="0 0 156.1 133.3" style="enable-background:new 0 0 156.1 133.3;" xml:space="preserve">
<style type="text/css">
	.st0{fill:#1D1D1B;}
</style>
<g>
	<path class="st0" d="M81,11.9v20.8c0,6.6,5.3,11.9,11.9,11.9h24.6l16.2,17.7c0.4,0.4,0.9,0.6,1.5,0.6c0.2,0,0.5,0,0.7-0.1
		c0.8-0.3,1.3-1,1.3-1.9V44.6h5.4c6.6,0,11.9-5.3,11.9-11.9V11.9C154.4,5.3,149,0,142.5,0H92.9C86.3,0,81,5.3,81,11.9z M150.4,11.9
		v20.8c0,4.4-3.5,7.9-7.9,7.9h-7.4c-1.1,0-2,0.9-2,2v13.2l-13.3-14.5c-0.4-0.4-0.9-0.6-1.5-0.6H92.9c-4.4,0-7.9-3.5-7.9-7.9V11.9
		C85,7.5,88.5,4,92.9,4h49.6C146.8,4,150.4,7.5,150.4,11.9z"/>
	<path class="st0" d="M65.4,38.8c0-11.4-9.3-20.7-20.7-20.7c-11.4,0-20.7,9.3-20.7,20.7s9.3,20.7,20.7,20.7
		C56.1,59.4,65.4,50.2,65.4,38.8z M28.1,38.8c0-9.2,7.5-16.7,16.7-16.7c9.2,0,16.7,7.5,16.7,16.7c0,9.2-7.5,16.7-16.7,16.7
		C35.5,55.4,28.1,48,28.1,38.8z"/>
	<path class="st0" d="M9.7,84.7c-0.1,0.3-6,26.1-9.7,44.2c-0.2,1.1,0.5,2.1,1.6,2.4c0.1,0,0.3,0,0.4,0c0.9,0,1.8-0.7,2-1.6
		c3.7-18,9.6-43.8,9.7-44.1c2.5-12.7,13.3-19.8,27.4-18.1c5.9,0.7,12.4,2.2,21.2,12.9c0.1,0.1,7.6,10.1,16.2,21.6
		c1.4,1.9,4.3,3.1,6.6,2.8c8-1.1,13.3-1.9,13.3-1.9c4.4-0.6,8.4,2.4,9,6.8c0.6,4.4-2.4,8.4-6.8,9l-22.3,3.2c-0.9,0.1-2.3,0-3.4-0.3
		c-1.7-0.6-3.3-1.7-4.2-2.9c-0.1-0.1-8.9-12.3-16.6-22.7c-2.3-3.2-4.6-3.2-5.7-2.9c-1.1,0.3-3.2,1.3-4,5.1l-6.2,30.3
		c-0.2,1.1,0.5,2.1,1.6,2.4c1.1,0.2,2.1-0.5,2.4-1.6L48.5,99c0.3-1.5,0.8-2,0.9-2c0.1,0,0.8,0.2,1.7,1.4
		c7.7,10.4,16.5,22.5,16.6,22.7c1.4,1.9,3.7,3.5,6.2,4.3l0.2,0c1.3,0.3,3.3,0.6,5,0.4l22.3-3.2c6.5-0.9,11.1-7,10.2-13.6
		c-0.9-6.5-7-11.1-13.6-10.2c-0.1,0-5.3,0.8-13.3,1.9c-0.9,0.1-2.3-0.5-2.9-1.2C73.1,88,65.6,78,65.4,77.8
		C55.7,65.9,48,64.2,41.5,63.4C25.4,61.6,12.6,70.1,9.7,84.7z"/>
	<path class="st0" d="M150,131.3c0-1.1-0.9-2-2-2H92.9c-1.1,0-2,0.9-2,2c0,1.1,0.9,2,2,2H148C149.1,133.3,150,132.4,150,131.3z"/>
	<path class="st0" d="M154.6,72.2c-1.4-1.9-3.7-2.9-6.3-2.9h-43c-5,0-9.9,3.8-11.2,8.7l-2.5,9.9C91.4,89,92,90,93.1,90.3
		c1.1,0.3,2.2-0.4,2.4-1.4L98,79c0.8-3.1,4.1-5.7,7.3-5.7h43c1.3,0,2.5,0.5,3.1,1.3c0.7,0.9,0.9,2.1,0.5,3.4l-9.3,36.5
		c-0.8,3.1-4.1,5.7-7.3,5.7h-19c-1.1,0-2,0.9-2,2s0.9,2,2,2h19c5,0,9.9-3.8,11.2-8.7l9.3-36.5C156.5,76.5,156,74.1,154.6,72.2z"/>
	<path class="st0" d="M99.5,18.1h36.4c1.1,0,2-0.9,2-2s-0.9-2-2-2H99.5c-1.1,0-2,0.9-2,2S98.4,18.1,99.5,18.1z"/>
	<path class="st0" d="M130.2,25.5h-25c-1.1,0-2,0.9-2,2s0.9,2,2,2h25c1.1,0,2-0.9,2-2S131.3,25.5,130.2,25.5z"/>
</g>
</svg>
