<svg xmlns="http://www.w3.org/2000/svg" xmlns:xlink="http://www.w3.org/1999/xlink" width="48" height="48" viewBox="0 0 48 48">
  <defs>
    <clipPath id="clip-iPhone_13_12_Pro_1">
      <rect width="48" height="48"/>
    </clipPath>
  </defs>
  <g id="iPhone_13_12_Pro_1" data-name="iPhone 13, 12 Pro – 1" clip-path="url(#clip-iPhone_13_12_Pro_1)">
    <g id="Group_21" data-name="Group 21" transform="translate(-128 -48)">
      <path id="Path_6" data-name="Path 6" d="M157,82V79c0-1.14-2.75-2.993-5-2.993S147,77.86,147,79v3" fill="none" stroke="#505050" stroke-miterlimit="10" stroke-width="2"/>
      <circle id="Ellipse_1" data-name="Ellipse 1" cx="11" cy="11" r="11" transform="translate(141 64)" fill="none" stroke="#505050" stroke-miterlimit="10" stroke-width="2"/>
      <path id="Path_7" data-name="Path 7" d="M152,75.958a3.131,3.131,0,0,1-3-3.411V71.409a3.025,3.025,0,1,1,6,0v1.138A3.131,3.131,0,0,1,152,75.958Z" fill="none" stroke="#505050" stroke-miterlimit="10" stroke-width="2"/>
      <path id="Path_8" data-name="Path 8" d="M149,62c0-1.14-2.75-2.993-5-2.993S139,60.86,139,62v3" fill="none" stroke="#505050" stroke-miterlimit="10" stroke-width="2"/>
      <path id="Path_9" data-name="Path 9" d="M144,58.958a3.131,3.131,0,0,1-3-3.411V54.409a3.025,3.025,0,1,1,6,0v1.138A3.131,3.131,0,0,1,144,58.958Z" fill="none" stroke="#505050" stroke-miterlimit="10" stroke-width="2"/>
      <path id="Path_10" data-name="Path 10" d="M155,62c0-1.14,2.75-2.993,5-2.993s5,1.853,5,2.993v3" fill="none" stroke="#505050" stroke-miterlimit="10" stroke-width="2"/>
      <path id="Path_11" data-name="Path 11" d="M160,58.958a3.131,3.131,0,0,0,3-3.411V54.409a3.025,3.025,0,1,0-6,0v1.138A3.131,3.131,0,0,0,160,58.958Z" fill="none" stroke="#505050" stroke-miterlimit="10" stroke-width="2"/>
      <path id="Path_12" data-name="Path 12" d="M174,81V78c0-1.14-2.75-2.993-5-2.993a6.936,6.936,0,0,0-4,1.537" fill="none" stroke="#505050" stroke-miterlimit="10" stroke-width="2"/>
      <path id="Path_13" data-name="Path 13" d="M169,74.958a3.131,3.131,0,0,1-3-3.411V70.409a3.025,3.025,0,1,1,6,0v1.138A3.131,3.131,0,0,1,169,74.958Z" fill="none" stroke="#505050" stroke-miterlimit="10" stroke-width="2"/>
      <path id="Path_14" data-name="Path 14" d="M130,81V78c0-1.14,2.75-2.993,5-2.993a6.936,6.936,0,0,1,4,1.537" fill="none" stroke="#505050" stroke-miterlimit="10" stroke-width="2"/>
      <path id="Path_15" data-name="Path 15" d="M135,74.958a3.132,3.132,0,0,0,3-3.411V70.409a3.025,3.025,0,1,0-6,0v1.138A3.131,3.131,0,0,0,135,74.958Z" fill="none" stroke="#505050" stroke-miterlimit="10" stroke-width="2"/>
      <path id="Path_16" data-name="Path 16" d="M161.318,81l8.485,8.485a2,2,0,0,1,0,2.829l-.707.707a2,2,0,0,1-2.828,0l-8.486-8.486" fill="none" stroke="#505050" stroke-miterlimit="10" stroke-width="2"/>
    </g>
  </g>
</svg>
