<svg xmlns="http://www.w3.org/2000/svg" xmlns:xlink="http://www.w3.org/1999/xlink" width="48" height="48" viewBox="0 0 48 48">
  <defs>
    <clipPath id="clip-iPhone_13_12_Pro_1">
      <rect width="48" height="48"/>
    </clipPath>
  </defs>
  <g id="iPhone_13_12_Pro_1" data-name="iPhone 13, 12 Pro – 1" clip-path="url(#clip-iPhone_13_12_Pro_1)">
    <g id="Group_16" data-name="Group 16" transform="translate(-368 -287.994)">
      <path id="Path_77" data-name="Path 77" d="M406.187,322.5l4.53-.5a.759.759,0,0,0,.667-1.119,4.163,4.163,0,0,1-.633-1.555c.088-.308.594-.4,1.781-1.1a1.557,1.557,0,0,0,.572-2.419c-.484-.748-3.7-4.929-3.783-6.2-.055-.825.935-2.9.242-6.169S405.021,289.7,391,290s-20,9.838-20,16.6,3.433,10.055,4.549,13.34c1.473,4.335,2.262,9.354-.485,15.059" fill="none" stroke="#505050" stroke-miterlimit="10" stroke-width="2"/>
      <path id="Path_78" data-name="Path 78" d="M397,335.212a11.448,11.448,0,0,1,3.05-5.553" fill="none" stroke="#505050" stroke-miterlimit="10" stroke-width="2"/>
      <path id="Path_79" data-name="Path 79" d="M396,327.66a9.738,9.738,0,0,0,2,1.34c1.339.426,6.194,2.182,8.2,1.42s1.609-2.588,1.638-3.131c.073-1.347,1.43-1.507,1.226-3.311" fill="none" stroke="#505050" stroke-miterlimit="10" stroke-width="2"/>
      <path id="Path_80" data-name="Path 80" d="M386.511,322a3,3,0,1,0,3-3A3,3,0,0,0,386.511,322Z" fill="none" stroke="#505050" stroke-miterlimit="10" stroke-width="2"/>
      <path id="Path_81" data-name="Path 81" d="M387,314v1a1,1,0,0,0,1,1h3a1,1,0,0,0,1-1v-.944c0-1.739,2.808-3.25,3.859-4.265A7.927,7.927,0,0,0,398,304a7.353,7.353,0,0,0-7-7c-5.3,0-7.862,3.468-8,7,0,.355,0,.7,0,1a1,1,0,0,0,1,1h3a1,1,0,0,0,1-1v-1a2.563,2.563,0,0,1,5,0,3.345,3.345,0,0,1-1.327,3c-1.692,1.495-4.674,3.739-4.674,7Z" fill="none" stroke="#505050" stroke-miterlimit="10" stroke-width="2"/>
    </g>
  </g>
</svg>
