<svg xmlns="http://www.w3.org/2000/svg" xmlns:xlink="http://www.w3.org/1999/xlink" width="500" height="344" viewBox="0 0 500 344">
  <defs>
    <clipPath id="clip-werecode">
      <rect width="500" height="344"/>
    </clipPath>
  </defs>
  <g id="werecode" clip-path="url(#clip-werecode)">
    <g id="Group_42" data-name="Group 42" transform="translate(-1969.482 -255.792)">
      <path id="Path_1" data-name="Path 1" d="M2840.163,857.493c-1.6-.03-3.2-.049-4.8-.053q-1.9-.012-3.794.011c-1.431.015-2.866.042-4.3.076-.117,0-.231,0-.348.008-.015.155-.027.307-.038.462q-.318,3.606-.515,7.224-.25,4.458-.326,8.932-.068,4.271.019,8.534c.011.519-.159,2.135.147,2.472.277.3,24.539.651,25.13.579.712-.087.795-1.231.95-2.037q.812-4.265,1.628-8.538.932-4.89,1.867-9.78.67-3.527,1.344-7.058Q2848.655,857.667,2840.163,857.493Z" transform="translate(-527.459 -351.504)" fill="#c25a3e"/>
      <path id="Path_2" data-name="Path 2" d="M2840.747,857.5q-2.4-.046-4.8-.053c-2.821.231-5.649.424-8.478.557q-.317,3.607-.514,7.224c9.806,0,19.613.394,29.415.163q.671-3.527,1.344-7.058Q2849.24,857.673,2840.747,857.5Z" transform="translate(-528.044 -351.51)" fill="#401d1d"/>
      <path id="Path_3" data-name="Path 3" d="M3012.8,770.142c0,.129,0,.257-.011.382a7.5,7.5,0,0,1-.761,2.84c-1.81,3.7-5.831,5.944-9.352,7.735-7.875,4-16.573,5.978-25.19,7.644-9.466,1.829-18.958,3.616-28.5,5-1.443.208-2.885.413-4.339.61l-24.777-5.706-19.7-4.536a7.28,7.28,0,0,0-1.764-2.734,6.55,6.55,0,0,0-.648-.564l1.98-.772,1.867-.716a384.229,384.229,0,0,1,48.294-15.031q3.129-.738,6.277-1.412a198.876,198.876,0,0,1,28.109-4.4,63.6,63.6,0,0,1,14.248.485c4.112.651,8.64,1.73,11.62,4.858A9.1,9.1,0,0,1,3012.8,770.142Z" transform="translate(-572.037 -289.903)" fill="#8a9177"/>
      <path id="Path_4" data-name="Path 4" d="M2985.271,586.758c-9.6,5.816-19.836,10.386-29.968,15.111a307.619,307.619,0,0,0-30.574,16.417q-9.149,5.606-17.9,11.832-5.515,3.924-10.855,8.087-9.916,7.735-19.17,16.266-2.584,2.38-5.115,4.82a7.032,7.032,0,0,0-2.7-.53,7.632,7.632,0,0,0-6.134,3.332l-34.41.163c.231-1.185.67-2.8.931-3.979a139.96,139.96,0,0,1,11.177-31.3,163.169,163.169,0,0,1,17.894-28.249,187.055,187.055,0,0,1,23.327-24.683,183.157,183.157,0,0,1,28-20.658c10.651-6.289,22.688-11.272,35.254-11a24.158,24.158,0,0,1,7.815,1.155,8.978,8.978,0,0,1,4.9,3.65c1.2,2.128.519,4.445-.776,6.353a43.962,43.962,0,0,1-5.952,6.766,107.224,107.224,0,0,1-14.293,11.2c-5.164,3.521-10.386,6.948-15.467,10.59a347.719,347.719,0,0,0-78.5,78.02q2.277-2.4,4.581-4.778,3.97-4.1,8-8.137c.443-.447.886-.89,1.333-1.336q7.8-7.758,15.868-15.228c8.6-7.936,17.451-15.6,26.617-22.877,9.068-7.205,18.443-14.039,28.143-20.378q7.366-4.81,14.979-9.227a144.928,144.928,0,0,1,16.065-8.277c9.947-4.206,20.749-7.569,31.24-3.631a10.159,10.159,0,0,1,2.908,2.332c.075.1.151.2.227.314C2995.142,572.415,2996.743,579.806,2985.271,586.758Z" transform="translate(-528.969 -155.729)" fill="#8a9177"/>
      <path id="Path_5" data-name="Path 5" d="M3139.893,611.91a384.562,384.562,0,0,0-38.09,16.641,199.51,199.51,0,0,0-36.17,23.384c-.185.155-.454-.11-.265-.265A180.86,180.86,0,0,1,3085,637.592a274.976,274.976,0,0,1,38.5-19.518c5.346-2.257,10.742-4.4,16.16-6.478C3139.741,611.7,3139.817,611.8,3139.893,611.91Z" transform="translate(-676.148 -198.745)" fill="#697052"/>
      <path id="Path_6" data-name="Path 6" d="M3096.307,789.54c0,.129,0,.257-.011.382-.591-.011-1.178-.015-1.769-.019a163.716,163.716,0,0,0-31.418,2.764c-10.284,1.931-20.5,4.263-30.726,6.444-.238.049-.341-.314-.1-.367q8.848-1.88,17.69-3.767c10.139-2.158,20.29-4.32,30.649-5.055C3085.841,789.556,3091.074,789.472,3096.307,789.54Z" transform="translate(-655.544 -309.302)" fill="#697052"/>
      <path id="Path_7" data-name="Path 7" d="M2880.251,954.3l-.382,0c.117-5.963.416-17.224.757-23.183,1.321-23.107,3.222-46.775-3.086-69.368a.189.189,0,0,1,.363-.1,116.227,116.227,0,0,1,3.529,18.768C2883.893,903.258,2880.694,931.443,2880.251,954.3Z" transform="translate(-559.471 -354.04)" fill="#401d1d"/>
      <path id="Path_8" data-name="Path 8" d="M2676.47,876.144c-.5,6.83-1.234,13.646-1.874,20.465-1.216,13.01-2.84,30.044-4.1,43.481l-.379,0c.723-7.629,1.745-18.3,2.4-25.254q.954-10.155,1.9-20.317c.625-6.671,1.382-13.343,1.787-20.029a60.532,60.532,0,0,0-1.6-19.5,121.422,121.422,0,0,0-6.876-17.867c-.1-.223.235-.4.333-.178,2.9,6.482,5.823,13.032,7.417,19.984A64.729,64.729,0,0,1,2676.47,876.144Z" transform="translate(-429.091 -338.712)" fill="#401d1d"/>
      <g id="Group_1" data-name="Group 1" transform="translate(2028.941 527.641)">
        <path id="Path_9" data-name="Path 9" d="M2615.769,939.3c-.095.42-.193.863-.3,1.333-.318,1.427-.681,3.067-1.079,4.877-3.487,15.948-9.609,45-12.517,58.066l-5.32.057c2.908-13.036,8.924-41.592,12.446-57.706.424-1.935.81-3.7,1.151-5.221.125-.557.242-1.079.352-1.571.042-.174.079-.348.117-.522A28.262,28.262,0,0,0,2615.769,939.3Z" transform="translate(-2413.82 -929.585)" fill="#b8a59c"/>
        <path id="Path_10" data-name="Path 10" d="M2994.374,937.8c-.253,1.132-.541,2.412-.855,3.817-.322,1.45-.67,3.033-1.041,4.725-3.521,16-9.03,41.637-12.037,55.154h0l-4.934.049c3.01-13.6,8.985-41.516,11.934-54.814.257-1.151.488-2.2.7-3.109.148-.647.292-1.3.439-1.946q.454-2.01.909-4.017C2992.25,937.74,2991.607,937.782,2994.374,937.8Z" transform="translate(-2649.29 -928.994)" fill="#b8a59c"/>
        <path id="Path_11" data-name="Path 11" d="M2630.577,944.018c-.341,1.526-.727,3.286-1.151,5.221q2.7-.21,5.392-.417c.4-1.81.761-3.449,1.079-4.877C2634.125,943.969,2632.349,943.984,2630.577,944.018Z" transform="translate(-2434.246 -932.9)" fill="#99867e"/>
        <path id="Path_12" data-name="Path 12" d="M3008.162,948.167c-.148.647-.292,1.3-.439,1.946-.208.912-.439,1.958-.7,3.108l3.249-.25c.594-.045,1.193-.091,1.791-.14.371-1.693.719-3.275,1.041-4.725C3011.459,948.129,3009.809,948.144,3008.162,948.167Z" transform="translate(-2668.877 -935.484)" fill="#99867e"/>
        <path id="Path_13" data-name="Path 13" d="M2206.263,914.771l-92.332,5.97c7.867-7.556,1.064,4.837,1.053,4.884l166.195-1.136,197.53-1.423Z" transform="translate(-2113.931 -914.771)" fill="#8a3c27"/>
        <path id="Path_14" data-name="Path 14" d="M2248.2,931.113a34.208,34.208,0,0,1-1.045,4.953l312.9,2.108c.511-2.682.727-2.317,1.438-4.953Z" transform="translate(-2196.713 -924.925)" fill="#401d1d"/>
      </g>
      <g id="Group_2" data-name="Group 2" transform="translate(2143.685 392.212)">
        <path id="Path_15" data-name="Path 15" d="M2617.591,848.722c-1.885-.034-7.391-.068-11.628-.1-2.041-.015-3.786-.03-4.691-.045q-2.783-12.307-5.562-24.614-.767-3.385-1.53-6.77-.931-4.1-1.855-8.2c-.1-.439-.2-.878-.3-1.318a33.265,33.265,0,0,0,3.835-.114c1.4-.121,10.848-.273,12.294-.575.038.174.08.348.118.522q1.124,4.987,2.253,9.969.625,2.771,1.253,5.543Q2614.681,835.868,2617.591,848.722Z" transform="translate(-2525.75 -712.367)" fill="#f28f68"/>
        <path id="Path_16" data-name="Path 16" d="M2613.959,833.852q-7.645-.369-15.3-.3c-.348,0-.7.008-1.045.015q.761,3.385,1.53,6.77l.5-.034q4.7-.329,9.413-.594,3.078-.17,6.16-.314Q2614.588,836.624,2613.959,833.852Z" transform="translate(-2529.222 -728.868)" fill="#401d1d"/>
        <path id="Path_17" data-name="Path 17" d="M2590.115,561.724v.011c-.012.064-.019.129-.034.2l-1.011,5.18L2584.806,589l-13.937,71.56a4.066,4.066,0,0,1-3.995,3.29H2420.426a3.438,3.438,0,0,1-3.377-4.1l19.454-99.874a3.45,3.45,0,0,1,3.381-2.787H2586.09a3.986,3.986,0,0,1,1.155.167A4.069,4.069,0,0,1,2590.115,561.724Z" transform="translate(-2416.983 -557.086)" fill="#f28f68"/>
        <path id="Path_18" data-name="Path 18" d="M2591.864,563.5l-17.045,87.728H2429.184L2446.23,563.5Z" transform="translate(-2424.564 -561.072)" fill="#fff"/>
        <path id="Path_19" data-name="Path 19" d="M2607.314,917.793l-31.805-.47-.8-4.238,31.959.472Z" transform="translate(-2514.992 -778.294)" fill="#b36242"/>
        <path id="Path_20" data-name="Path 20" d="M2643.081,867.8c-1.079-.027-2.162-.061-3.245-.08l-6.471-28.668h3.222C2636.841,840.408,2642.184,863.048,2643.081,867.8Z" transform="translate(-2551.438 -732.295)" fill="#b36242"/>
      </g>
      <path id="Path_21" data-name="Path 21" d="M2450.032,919.488h-93l1.631-4.717h93Z" transform="translate(-236.047 -387.13)" fill="#401d1d"/>
      <g id="Group_4" data-name="Group 4" transform="translate(1977.154 387.886)">
        <path id="Path_22" data-name="Path 22" d="M2296.614,1050.614c-.436-.95-1.871-1.159-2.756-1.435q-2.175-.676-4.4-1.17a54,54,0,0,0-6.7-1.045c-.666-.068-1.336-.117-2.007-.155a53.335,53.335,0,0,0-10.105.379c-2.2.3-5.1,1.23-4.983,3.96a.194.194,0,0,0,.348.106q-.222,1.834-.458,3.669c-.106.833-.22,1.662-.333,2.495q-1.01,7.378-2.332,14.706l30.854-.322c.205-1.177.368-2.366.557-3.54q.693-4.316,1.337-8.64c.049-.31.094-.617.14-.928q.352-2.4.689-4.789C2296.611,1052.931,2297.046,1051.568,2296.614,1050.614Z" transform="translate(-2154.705 -857.007)" fill="#7d443b"/>
        <path id="Path_23" data-name="Path 23" d="M2066.273,1012.23q-1.71,7.554-3.415,15.111-.7,3.112-1.409,6.228c-.14.625-.284,1.253-.424,1.878q-1.761,7.8-3.525,15.592l-5.316.057q1.772-7.826,3.536-15.649,2.642-11.694,5.286-23.384c.042-.174.08-.348.117-.522A28.257,28.257,0,0,0,2066.273,1012.23Z" transform="translate(-2023.776 -835.147)" fill="#b8a59c"/>
        <path id="Path_24" data-name="Path 24" d="M2243.175,1009.56q-1.46,6.463-2.923,12.93-.88,3.89-1.757,7.781c-.276,1.208-.549,2.419-.822,3.627q-1.669,7.395-3.343,14.785l-5.316.057q1.676-7.429,3.355-14.85.528-2.329,1.052-4.653.762-3.362,1.519-6.717,1.488-6.566,2.968-13.127c.038-.174.08-.348.118-.522A28.918,28.918,0,0,0,2243.175,1009.56Z" transform="translate(-2133.653 -833.488)" fill="#b8a59c"/>
        <g id="Group_3" data-name="Group 3" transform="translate(47.838)">
          <path id="Path_25" data-name="Path 25" d="M2275.207,982.7a131.856,131.856,0,0,1-2.121,17.193l-6.679.068a.041.041,0,0,0-.031,0c-1.586-.03-3.15-.008-4.7.049h-.03l-27.375.288c.886-3.423,2.76-8.716,2.075-11.48-.469.008-.871.008-1.189.008-1.59-.015-4.157-.25-7.3-.625-5.081-.613-11.658-1.6-18.023-2.635-4.294-.7-8.489-1.416-12.059-2.063-2.313-.42-4.366-.807-6.013-1.132-1.049-.212-1.931-.394-2.613-.549-.814-.186-1.635-.345-2.461-.485-4.134-.712-8.417-.984-12.563-1.651-1.151-.182-2.291-.4-3.411-.663a25.49,25.49,0,0,1-9.553-4.184h0c-.4-.3-.792-.606-1.178-.935a17.345,17.345,0,0,1-6.024-12.124,74.59,74.59,0,0,1-.046-8.629c.091-3.006.239-6.009.39-9.011-.011,0-.023,0-.03.008a.189.189,0,0,1-.1-.363q6.247-1.835,12.536-3.536,1.465-.4,2.93-.788,10.649-2.823,21.393-5.263,4.152-.943,8.311-1.825c1.461-.311,4.123-1.284,5.259.254a4.392,4.392,0,0,1,.4,2.726q-.04,1.988-.087,3.976c-.027,1.321-.4,3.3.223,4.528.579,1.144,2.033,1.518,3.154,1.9,10.382,3.559,51.838,13.445,59.747,19.533C2271.671,968.089,2275.6,970.621,2275.207,982.7Z" transform="translate(-2134.762 -785.587)" fill="#401d1d"/>
          <path id="Path_26" data-name="Path 26" d="M2629.572,905.318c-1.508-.786-10.476.264-10.59.29-3.817.872-6.193,4.244-7.012,8.077a.188.188,0,0,0,.172.248c9.19-.165,14.263.43,22.407.148a.191.191,0,0,0,.188-.131C2635.673,910.075,2632.634,906.915,2629.572,905.318Z" transform="translate(-2419.447 -768.961)" fill="#401d1d"/>
          <path id="Path_27" data-name="Path 27" d="M2599.508,891.233a8.263,8.263,0,0,1-3.427.587,55.162,55.162,0,0,1-9.038-.538,11.531,11.531,0,0,1,.027,1.352c-.057,1.382-1.568,7.281-3.43,8.7-.776.594-1.246-.379-1.31-1.143-.625,1.461-1.431,2.639-2.393,2.438a1.809,1.809,0,0,1-.253.352.841.841,0,0,1-1.507-.326,8.911,8.911,0,0,1-.159-1.738c-.068-.863-.133-1.73-.2-2.594s-.292-3.707-.716-4c-2.37-.685-7.739-2.01-10.007-2.98a3.942,3.942,0,0,1-2.086-1.681c-.034-.064-.394-.621-.424-.685-1.795.026-3.275.091-4.911.193-1.454.083-3.029.2-5.054.329-.458.03-.936.061-1.443.091-.114.008.337-.538.352-.647a22.805,22.805,0,0,1,1.484-5.376.168.168,0,0,1,.1-.292h.057a.16.16,0,0,1,.094,0c.246,0,.489-.011.734-.019q1.545-.04,3.082-.106,2.544-.108,5.089-.3c1.423-.106,2.858-.307,4.286-.31a10.5,10.5,0,0,1,3.76.841,195.543,195.543,0,0,0,19.7,5.407,21.99,21.99,0,0,0,5.487.023c.526-.049,1.1-.11,1.76-.17a5.121,5.121,0,0,1,.878-.034.94.94,0,0,1,.988.75C2601.2,890.271,2600.205,890.9,2599.508,891.233Z" transform="translate(-2382.906 -754.986)" fill="#bf6541"/>
          <path id="Path_28" data-name="Path 28" d="M2317.79,677.109a57.758,57.758,0,0,0-13.652-5.824q6.99-11.361,14.249-22.551c4.451,2.02,9.039,4.018,12.932,6.981Q2324.432,666.334,2317.79,677.109Z" transform="translate(-2228.172 -609.708)" fill="#bf6541"/>
          <path id="Path_29" data-name="Path 29" d="M2412.551,623.222c-.508-1.459-4.3-7.161-5.082-8.741a.188.188,0,0,0-.349.135.176.176,0,0,0-.065.041.188.188,0,0,0-.344.085c-.3,4.465.5,8.87,1.333,13.238a.193.193,0,0,0,.268.136C2410.375,627.442,2413.51,625.977,2412.551,623.222Z" transform="translate(-2291.867 -588.36)" fill="#bf6541"/>
          <path id="Path_30" data-name="Path 30" d="M2414.187,624.121c-.72,0-1.412-.6-1.96-1.694a12.288,12.288,0,0,1-.634-8.034c.387-1.226,1.017-1.933,1.774-1.993,1.48-.108,2.794,2.314,3.058,5.654h0a11.086,11.086,0,0,1-.361,4.071c-.386,1.225-1.016,1.933-1.773,1.992C2414.256,624.119,2414.222,624.121,2414.187,624.121Zm-.718-10.968-.043,0c-.416.033-.831.58-1.111,1.466a11.552,11.552,0,0,0,.589,7.468c.414.83.9,1.31,1.326,1.273s.832-.58,1.111-1.465a10.33,10.33,0,0,0,.328-3.783h0C2415.436,615.156,2414.334,613.153,2413.469,613.153Z" transform="translate(-2294.69 -587.129)" fill="#f7e9e1"/>
          <path id="Path_31" data-name="Path 31" d="M2362.737,617.834v-.008c.035-.723.084-1.832.1-2.708.006-.208.008-.406.007-.577.01-2.857-.182-5.731-.422-8.556-.2-2.377-.422-14.444-.606-15.718a.163.163,0,0,0-.166-.147.145.145,0,0,0-.155-.1c-7.078.241-15.291,3.043-21.342,6.735a38.694,38.694,0,0,0-4.355,3.062,8,8,0,0,0-2.867,3.745,18.793,18.793,0,0,0-.529,5.727,13.9,13.9,0,0,0,.884,4.807,8.937,8.937,0,0,0,3.392,4.186c1.448.975,4.529,3.869,4.556,3.772,2.328,2.366,4.793,4.735,7.885,6.034,2.884,1.2,6.855,1.556,9.563-.2,2.966-1.927,3.636-5.088,3.934-8.433C2362.671,618.911,2362.706,618.375,2362.737,617.834Z" transform="translate(-2245.729 -573.224)" fill="#bf6541"/>
          <path id="Path_32" data-name="Path 32" d="M2403.662,621.212c-.01,1.586-.669,2.867-1.471,2.862s-1.442-1.3-1.431-2.881.669-2.867,1.471-2.862S2403.673,619.626,2403.662,621.212Z" transform="translate(-2288.21 -590.816)" fill="#401d1d"/>
          <path id="Path_33" data-name="Path 33" d="M2400.2,602.734a13.65,13.65,0,0,0-5.622,1.345c-1.089.682-1.036,1.838.375,2.361a8.7,8.7,0,0,0,2.807.278c.655.018,1.315.033,1.972.047a2.1,2.1,0,0,0,.589-.051A35.688,35.688,0,0,0,2400.2,602.734Z" transform="translate(-2283.897 -581.125)" fill="#733220"/>
          <path id="Path_34" data-name="Path 34" d="M2561.48,884.136q-1.539.068-3.082.106c-.45,1.685-.871,3.389-1.155,5.111-.046.261-.155.689-.227,1.136,2.025-.133,3.6-.246,5.054-.329Q2561.775,887.15,2561.48,884.136Z" transform="translate(-2385.304 -755.98)" fill="#9c4725"/>
          <path id="Path_35" data-name="Path 35" d="M2403.657,656.308c-1.314.88-3.081.7-4.7.475-1.071-.145-1.129.713-.326,1.234,1.177.77,3.167,1.571,4.6,1.143a1.479,1.479,0,0,0,.328-.143C2403.589,658.293,2403.639,657.184,2403.657,656.308Z" transform="translate(-2286.545 -614.414)" fill="#fff"/>
          <path id="Path_36" data-name="Path 36" d="M2343.2,556.054c-.763-.314-1.852-.3-2.211-1.211a12.089,12.089,0,0,1-.408-2.212,7.963,7.963,0,0,0-1.072-3.388c-1.625-2.21-5.354-1.447-7.513-.382a3.9,3.9,0,0,0-4-3.2,10.111,10.111,0,0,0-6.541,2.741c-.972.858-1.654,1.937-2.55,2.857a4.972,4.972,0,0,1-4.257,1.255,15.731,15.731,0,0,0-3.636-.094,6.38,6.38,0,0,0-3.071,1.494,9.234,9.234,0,0,0-3.2,6.981c-2.119.771-4.495,1.936-4.74,4.4a4.254,4.254,0,0,0,.283,1.71,2.891,2.891,0,0,1-.49,2.781c-.828,1.126-2.077,1.9-2.633,3.223a4.749,4.749,0,0,0,1.34,5.423c2.046,1.638,4.763,1.309,7.174.722-1.348,1.209-2.615,3.544-.629,4.456.578.266,1.231.3,1.829.51a3.711,3.711,0,0,1,2.029,1.823c.941,1.761.78,2.291.432,4.167a1.079,1.079,0,0,0,.111,1.206c.658.842,2.751.579,3.728.5a20.63,20.63,0,0,0,2.044-.37,18.6,18.6,0,0,1,2.751-.084c1.176-.043,1.13-1.207,1.107-2.135-.04-1.536.367-2.235-.018-3.714-.436-1.672-2.168-3.5-1.643-5.216.538-1.758,1.8-2.041,3.477-2.6a36.631,36.631,0,0,0,4.11-1.21c2.426-1.136,2.807-3.353,2.525-5.623a6.756,6.756,0,0,0,5.3-1.135,6.6,6.6,0,0,0,2.469-3.927,12.971,12.971,0,0,0,3.836-.7c2.3-.723,5.186-2.132,6.363-4.341C2346.586,558.712,2345.138,556.848,2343.2,556.054Z" transform="translate(-2223.62 -545.661)" fill="#733220"/>
          <path id="Path_37" data-name="Path 37" d="M2379.925,623.061,2367.4,624.3a104.747,104.747,0,0,1-13.868.937c-.482-.017-.6.732-.11.749a100.441,100.441,0,0,0,13.332-.862l13.263-1.308A3.7,3.7,0,0,1,2379.925,623.061Z" transform="translate(-2258.6 -593.755)" fill="#f7e9e1"/>
          <path id="Path_38" data-name="Path 38" d="M2356.787,627.974c-2.079-2.246-5.743-2.063-6.569.745-.819,2.784,1.668,6.233,3.966,7.565a4.5,4.5,0,0,0,4.051.165c1.367-.569,1.8-1.712,2.016-3.092C2360.668,630.7,2360.079,628.673,2356.787,627.974Z" transform="translate(-2256.705 -595.852)" fill="#bf6541"/>
          <path id="Path_39" data-name="Path 39" d="M2278.193,760.23c-3.214.168-7.851.73-10.878-.519-1.361-.562-5.742-3.5-7.383-3.325-3.338.365-23.475-1.408-24.962-5.9a.153.153,0,0,0,0-.117c-1.764-4.2-5.971-14.054-7.735-18.249-1.641-3.9-3.214-7.848-5.05-11.665a47.48,47.48,0,0,0-13.673-17.276,44.924,44.924,0,0,0-6.046-3.932q-.66-1.863-1.321-3.727c-.42-1.184-.726-3.095-1.75-3.979-1.118-.967-15.034-5.2-18.888-4.752-2.964.345-3.6,2.919-5.356,4.836-6.163,1.275-30.811,5.477-34.1,6.747a30.8,30.8,0,0,0-9.046,5.584c-3.065,2.654-5.845,5.643-8.694,8.524l-9.138,9.241c-2.724,2.754-5.783,5.413-7.954,8.647-1.706,2.543-3.541,6.612-2.321,9.526,4.812,11.5,15.5,10.1,20.381,9.571-.83,1.747-3.818,14.942-5.155,19.11-1.264,3.945-2.2,10.65-.717,14.67,1.435,3.893,4.27,7.178,5.036,11.327a.192.192,0,0,0,.233.133,345.52,345.52,0,0,1,44.142-7.268c1.843-.182,3.69-.324,5.534-.5a2.6,2.6,0,0,0,2.409-1.9c1.411-3.03,18.952-34.8,19.967-37.234,3.233,2.975,19.425,27.852,22.448,30.345a11.836,11.836,0,0,0,3.989,2.341c1.678.511,26.745,3.709,36.207,2.468a7.219,7.219,0,0,0,3.916-2.109,19.449,19.449,0,0,0,2.668-3.715,10.074,10.074,0,0,1,4.221-3.836c1.7-.816,3.524-1.31,5.244-2.072a4.269,4.269,0,0,0,1.911-1.34,6.67,6.67,0,0,0,.792-2.65l1.252-6.768A.191.191,0,0,0,2278.193,760.23Z" transform="translate(-2103.501 -633.335)" fill="#b8a59c"/>
          <path id="Path_40" data-name="Path 40" d="M2362.7,635.069c-1.808-.144-1.612-2.11-2.058-3.393a2.883,2.883,0,0,0-1.057-1.471c-.2-.143-.387.185-.191.327,1.818,1.316.529,4.694,3.306,4.915C2362.938,635.467,2362.937,635.088,2362.7,635.069Z" transform="translate(-2262.453 -598.172)" fill="#9c4725"/>
          <path id="Path_41" data-name="Path 41" d="M2621.389,904.572a6.348,6.348,0,0,0-2.474-1.611c-.216-.113-.407.214-.19.327.919.479,2.189.894,2.579,1.949a6.353,6.353,0,0,1,.174,2.4,33.248,33.248,0,0,1-.737,5.778c-.051.238.314.339.366.1a30.728,30.728,0,0,0,.769-6.9A3.676,3.676,0,0,0,2621.389,904.572Z" transform="translate(-2423.588 -767.664)" fill="#9c4725"/>
          <path id="Path_42" data-name="Path 42" d="M2629.845,899.535a6.776,6.776,0,0,0-2.35-1.558.189.189,0,0,0-.191.327c.824.468,2.081.912,2.427,1.865a7.048,7.048,0,0,1,.07,3.131,48.745,48.745,0,0,1-1.359,5.958.19.19,0,0,0,.365.1,33.787,33.787,0,0,0,1.476-7.229A4.429,4.429,0,0,0,2629.845,899.535Z" transform="translate(-2428.921 -764.565)" fill="#9c4725"/>
          <path id="Path_43" data-name="Path 43" d="M2322.423,795.4a65.288,65.288,0,0,1-9.1-21.647c-.053-.238-.418-.137-.365.1A65.592,65.592,0,0,0,2322.1,795.6C2322.229,795.8,2322.557,795.61,2322.423,795.4Z" transform="translate(-2233.647 -687.31)" fill="#9c7968"/>
          <path id="Path_44" data-name="Path 44" d="M2328.714,836.282q-3.121-2.544-6.042-5.318c-.177-.168-.445.1-.268.268q2.921,2.773,6.042,5.318C2328.634,836.7,2328.9,836.436,2328.714,836.282Z" transform="translate(-2239.486 -722.907)" fill="#9c7968"/>
          <path id="Path_45" data-name="Path 45" d="M2440.85,869.747q-1.035,5.229-2.524,10.349a.189.189,0,0,0,.365.1q1.489-5.118,2.524-10.349C2441.262,869.61,2440.9,869.508,2440.85,869.747Z" transform="translate(-2311.547 -746.955)" fill="#9c7968"/>
          <path id="Path_46" data-name="Path 46" d="M2531.885,884.461c-.022-.241-.4-.243-.378,0a16.108,16.108,0,0,1-1.361,8.2c-.1.22.227.413.327.191A16.478,16.478,0,0,0,2531.885,884.461Z" transform="translate(-2368.596 -756.07)" fill="#9c7968"/>
          <path id="Path_47" data-name="Path 47" d="M2176.257,758.482a99.283,99.283,0,0,0-8.343,23.187c-.053.237.312.339.365.1a98.853,98.853,0,0,1,8.305-23.1C2176.695,758.456,2176.368,758.264,2176.257,758.482Z" transform="translate(-2143.522 -677.843)" fill="#9c7968"/>
          <path id="Path_48" data-name="Path 48" d="M2330.634,709.8a38.53,38.53,0,0,0-13.446-2.246.189.189,0,0,0,0,.379,38.246,38.246,0,0,1,13.346,2.233C2330.763,710.25,2330.862,709.884,2330.634,709.8Z" transform="translate(-2236.167 -646.257)" fill="#9c7968"/>
          <path id="Path_49" data-name="Path 49" d="M2253.121,924.191a56.4,56.4,0,0,1-22.642,10.386c-.239.05-.137.415.1.365a56.654,56.654,0,0,0,22.733-10.424C2253.5,924.372,2253.314,924.044,2253.121,924.191Z" transform="translate(-2182.317 -780.847)" fill="#9c7968"/>
          <path id="Path_50" data-name="Path 50" d="M2380.526,1051.843a66.039,66.039,0,0,0-19.217-26.849c-.186-.155-.455.111-.268.267a65.662,65.662,0,0,1,19.119,26.682C2380.248,1052.169,2380.614,1052.071,2380.526,1051.843Z" transform="translate(-2263.491 -843.477)" fill="#7d443b"/>
          <path id="Path_51" data-name="Path 51" d="M2337.227,622.807a7.926,7.926,0,0,0-5.368-.122,7.671,7.671,0,0,0-2.233,1.193c-1.043.8-1.923,1.9-3.364,1.828-.243-.013-.243.366,0,.379,1.95.1,3.1-1.778,4.674-2.6a7.562,7.562,0,0,1,6.189-.313C2337.354,623.26,2337.452,622.894,2337.227,622.807Z" transform="translate(-2241.806 -593.267)" fill="#b35e22"/>
          <path id="Path_52" data-name="Path 52" d="M2381.792,581.625a7.5,7.5,0,0,0-9.8-4.163c-.223.09-.125.457.1.365a7.122,7.122,0,0,1,9.334,3.9C2381.518,581.949,2381.884,581.851,2381.792,581.625Z" transform="translate(-2270.255 -565.075)" fill="#b35e22"/>
          <path id="Path_53" data-name="Path 53" d="M2331.2,594.5a7.671,7.671,0,0,0-8.365,1.048c-.186.159.083.426.268.268a7.277,7.277,0,0,1,7.906-.989C2331.228,594.938,2331.419,594.612,2331.2,594.5Z" transform="translate(-2239.751 -575.521)" fill="#b35e22"/>
          <path id="Path_54" data-name="Path 54" d="M2671.739,898.577c-.659.061-1.234.121-1.76.17-.057.36.015.7.431.825a2.074,2.074,0,0,0,1.9-.382,1.3,1.3,0,0,0,.31-.648A5.129,5.129,0,0,0,2671.739,898.577Z" transform="translate(-2455.485 -764.928)" fill="#9c4725"/>
          <path id="Path_55" data-name="Path 55" d="M2547.475,899.233a1.137,1.137,0,0,0,0,2.272A1.137,1.137,0,0,0,2547.475,899.233Z" transform="translate(-2378.694 -765.361)" fill="#9c7968"/>
          <path id="Path_56" data-name="Path 56" d="M2224.232,741.874a.192.192,0,0,0-.285-.163q-2.493,1.215-4.877,2.63c.133.066.265.136.4.2q1.959-1.149,3.991-2.161c-1.023,1.927-3.492,5.736-4.538,7.374-.132.206.2.4.327.191,1.072-1.679,3.638-5.639,4.611-7.514q.036,2.268-.1,4.533l.368.2Q2224.3,744.521,2224.232,741.874Z" transform="translate(-2175.202 -667.467)" fill="#fff"/>
          <path id="Path_57" data-name="Path 57" d="M2298.644,700.183a.192.192,0,0,0-.285-.164q-2.493,1.215-4.877,2.63c.134.066.266.136.4.2q1.959-1.149,3.991-2.162c-1.023,1.927-3.492,5.736-4.538,7.374-.131.206.2.4.327.191,1.072-1.679,3.638-5.638,4.611-7.514q.036,2.268-.1,4.533l.368.2Q2298.711,702.83,2298.644,700.183Z" transform="translate(-2221.439 -641.562)" fill="#fff"/>
          <path id="Path_58" data-name="Path 58" d="M2275.166,789.63a.192.192,0,0,0-.285-.164q-2.493,1.215-4.877,2.63c.133.065.265.136.4.2q1.958-1.148,3.992-2.162c-1.024,1.927-3.492,5.736-4.539,7.374-.131.206.2.4.327.191,1.072-1.679,3.638-5.638,4.611-7.514q.037,2.269-.1,4.533l.368.2Q2275.232,792.277,2275.166,789.63Z" transform="translate(-2206.85 -697.142)" fill="#fff"/>
          <path id="Path_59" data-name="Path 59" d="M2383.256,758.571a.191.191,0,0,0-.284-.164q-2.494,1.215-4.877,2.63c.134.066.266.136.4.2q1.959-1.149,3.992-2.162c-1.024,1.927-3.492,5.736-4.538,7.374-.132.206.2.4.327.191,1.072-1.679,3.638-5.638,4.611-7.514q.037,2.268-.1,4.533l.368.2Q2383.323,761.218,2383.256,758.571Z" transform="translate(-2274.015 -677.842)" fill="#fff"/>
          <path id="Path_60" data-name="Path 60" d="M2396.384,840.654a.192.192,0,0,0-.285-.164q-2.493,1.215-4.876,2.63c.133.066.265.136.4.2q1.958-1.149,3.991-2.162c-1.024,1.927-3.492,5.736-4.538,7.374-.132.206.2.4.327.191,1.073-1.679,3.638-5.639,4.611-7.514q.037,2.268-.1,4.533l.368.2Q2396.451,843.3,2396.384,840.654Z" transform="translate(-2282.173 -728.847)" fill="#fff"/>
          <path id="Path_61" data-name="Path 61" d="M2149.248,776.987a.192.192,0,0,0-.285-.164q-2.493,1.215-4.877,2.63c.134.066.266.136.4.2q1.959-1.149,3.991-2.162c-1.024,1.927-3.492,5.736-4.538,7.374-.131.206.2.4.327.191,1.072-1.679,3.638-5.639,4.612-7.514q.036,2.268-.1,4.533l.368.2Q2149.314,779.635,2149.248,776.987Z" transform="translate(-2128.608 -689.286)" fill="#fff"/>
          <path id="Path_62" data-name="Path 62" d="M2500.661,881.688a.192.192,0,0,0-.285-.163q-2.494,1.215-4.877,2.63c.134.065.266.136.4.2,1.306-.766,2.638-1.483,3.991-2.162-1.023,1.927-3.491,5.736-4.538,7.374-.131.206.2.4.327.191,1.072-1.679,3.638-5.638,4.612-7.514q.036,2.269-.1,4.533l.368.2Q2500.727,884.335,2500.661,881.688Z" transform="translate(-2346.967 -754.344)" fill="#fff"/>
          <path id="Path_63" data-name="Path 63" d="M2454.295,913.315a.192.192,0,0,0-.285-.164q-2.493,1.215-4.877,2.63c.134.066.266.136.4.2q1.959-1.149,3.992-2.162c-1.024,1.927-3.492,5.736-4.538,7.374-.131.206.2.4.327.191,1.072-1.679,3.638-5.639,4.611-7.514q.036,2.268-.1,4.533l.368.2Q2454.362,915.962,2454.295,913.315Z" transform="translate(-2318.157 -773.996)" fill="#fff"/>
          <path id="Path_64" data-name="Path 64" d="M2202.315,828.218a.192.192,0,0,0-.285-.163q-2.493,1.215-4.877,2.63c.134.066.266.136.4.2q1.959-1.149,3.991-2.162c-1.023,1.927-3.492,5.736-4.538,7.374-.131.206.2.4.327.191,1.072-1.679,3.638-5.639,4.611-7.514q.036,2.269-.1,4.533l.368.2Q2202.381,830.865,2202.315,828.218Z" transform="translate(-2161.583 -721.119)" fill="#fff"/>
          <path id="Path_65" data-name="Path 65" d="M2275.166,879.053a.192.192,0,0,0-.285-.164q-2.493,1.215-4.877,2.631c.133.065.265.135.4.2q1.958-1.149,3.992-2.162c-1.024,1.927-3.492,5.736-4.539,7.374-.131.206.2.4.327.191,1.072-1.679,3.638-5.639,4.611-7.514q.037,2.268-.1,4.533l.368.2Q2275.232,881.7,2275.166,879.053Z" transform="translate(-2206.85 -752.707)" fill="#fff"/>
          <path id="Path_66" data-name="Path 66" d="M2202.315,917.6a.192.192,0,0,0-.285-.164q-2.493,1.215-4.877,2.63c.134.065.266.136.4.2q1.959-1.148,3.991-2.162c-1.023,1.927-3.492,5.736-4.538,7.374-.131.206.2.4.327.191,1.072-1.679,3.638-5.639,4.611-7.514q.036,2.269-.1,4.533l.368.2Q2202.381,920.243,2202.315,917.6Z" transform="translate(-2161.583 -776.656)" fill="#fff"/>
        </g>
        <path id="Path_67" data-name="Path 67" d="M2166.82,1045.714c-.023-.023-.05-.045-.072-.064a5.643,5.643,0,0,0-3.184-.886c-1.079-.076-8.4-.064-18.2,0-.246,0-.5,0-.746,0-1.473.008-3,.019-4.566.026-5.134.038-10.7.083-16.262.129l-2.889.023-7.895.068h0c-12.9.117-24.149.231-27.784.265-.114,0-.223,0-.322,0-.322,0-.564,0-.715,0-2.268.019-4.423.174-5.755,1.825a6.958,6.958,0,0,0-.579.844,10.539,10.539,0,0,0-1.091,2.847,6.551,6.551,0,0,0-.318,3.381.412.412,0,0,0,.019.061c.368.992,1.45,1.189,2.408,1.363.382.068,4.029.144,9.575.216.136,0,.276,0,.42.007h0c6.743.087,16.156.17,25.905.231,7.747.049,15.709.087,22.71.1,1.84.008,3.616.011,5.3.008,2.358,0,4.543,0,6.5,0,4.688-.015,8.057-.049,9.322-.106a22.467,22.467,0,0,0,3.071-.326,9.354,9.354,0,0,0,3.43-1.287l.038-.023c2.162-1.431,2.514-3.775,2.537-6.145A3.141,3.141,0,0,0,2166.82,1045.714Z" transform="translate(-2038.76 -855.758)" fill="#44479c"/>
        <path id="Path_68" data-name="Path 68" d="M2064.359,899.012c-.242-.428-.473-.859-.689-1.295a27.1,27.1,0,0,1-1.492-3.642,36.306,36.306,0,0,1-1.621-7.981c-.711-7.319.194-14.66-.185-21.987-.091-1.78-.265-3.552-.5-5.32a100.607,100.607,0,0,0-3.957-16.671c-4.233-13.354-10.151-26.439-12.309-40.165h-66.449a124.5,124.5,0,0,0,5.748,21.275c4.8,13.816,10.6,27.632,11.075,42.126.239,7.167-.6,14.358.216,21.513a32.2,32.2,0,0,0,2.874,10.48,18.2,18.2,0,0,0,6.709,7.868h66.184A17.875,17.875,0,0,1,2064.359,899.012Z" transform="translate(-1977.154 -704.913)" fill="#f7e9e1"/>
        <path id="Path_69" data-name="Path 69" d="M2067.845,905.209h-.42q-.7-1.386-1.31-2.825c-3.491-8.277-3.419-17.129-3.559-25.951a86.4,86.4,0,0,0-1.212-14.183,114.721,114.721,0,0,0-3.446-13.464c-2.862-9.186-6.051-18.276-9.1-27.4q-3.248-9.717-6.5-19.435h.4q3.749,11.189,7.486,22.377c3,8.966,6.2,17.894,8.875,26.962a97.146,97.146,0,0,1,3.12,13.706,102.216,102.216,0,0,1,.788,13.225,107.008,107.008,0,0,0,.731,13.926,41.379,41.379,0,0,0,3.809,12.377C2067.615,904.75,2067.728,904.978,2067.845,905.209Z" transform="translate(-2017.631 -704.91)" fill="#e8dfdf"/>
        <path id="Path_70" data-name="Path 70" d="M2167.439,899.012c-.242-.428-.473-.859-.689-1.295a27.132,27.132,0,0,1-1.492-3.642,36.29,36.29,0,0,1-1.62-7.981c-.712-7.319.193-14.66-.186-21.987-.091-1.78-.265-3.552-.5-5.32a100.657,100.657,0,0,0-3.957-16.671c-4.233-13.354-10.151-26.439-12.309-40.165h-3.639c1.772,5.3,2.98,12.309,4.756,17.61,3.237,9.7,8.568,21.847,11.646,36.8.193.939.386,2.026.572,3.211.791,5.074,1.416,11.881,1.1,15.97-.632,8.106-.3,13.57,1.253,18.553a32.777,32.777,0,0,0,1.658,4.252,58.355,58.355,0,0,0,3.881,6.865h5.131A17.877,17.877,0,0,1,2167.439,899.012Z" transform="translate(-2080.234 -704.913)" fill="#44479c"/>
      </g>
      <g id="Group_12" data-name="Group 12" transform="translate(2195.042 404.598)">
        <g id="Group_5" data-name="Group 5" transform="translate(4.765)">
          <path id="Path_71" data-name="Path 71" d="M2570.448,591.689h-5.238l.366-1.889h5.238Z" transform="translate(-2565.21 -589.801)" fill="#c95838"/>
          <path id="Path_72" data-name="Path 72" d="M2754.18,591.689h-5.238l.367-1.889h5.238Z" transform="translate(-2679.376 -589.801)" fill="#fff"/>
          <path id="Path_73" data-name="Path 73" d="M2588.926,591.689h-2.966l.367-1.889h2.966Z" transform="translate(-2578.104 -589.801)" fill="#d1a38c"/>
          <path id="Path_74" data-name="Path 74" d="M2607.939,591.689h-8.645l.367-1.889h8.645Z" transform="translate(-2586.389 -589.801)" fill="#ccb6b6"/>
          <path id="Path_75" data-name="Path 75" d="M2655.076,591.689h-23.033l.367-1.889h23.033Z" transform="translate(-2606.739 -589.801)" fill="#632e29"/>
          <path id="Path_76" data-name="Path 76" d="M2717.382,591.689h-15.839l.367-1.889h15.839Z" transform="translate(-2649.924 -589.801)" fill="#632e29"/>
        </g>
        <g id="Group_6" data-name="Group 6" transform="translate(10.827 22.829)">
          <path id="Path_77" data-name="Path 77" d="M2603.578,651.985h-2.966l.366-1.889h2.966Z" transform="translate(-2593.27 -650.096)" fill="#d1a38c"/>
          <path id="Path_78" data-name="Path 78" d="M2624.484,651.985h-10.539l.367-1.889h10.539Z" transform="translate(-2601.554 -650.096)" fill="#ccb6b6"/>
          <path id="Path_79" data-name="Path 79" d="M2684.573,651.985H2651.7l.367-1.889h32.877Z" transform="translate(-2625.011 -650.096)" fill="#632e29"/>
          <path id="Path_80" data-name="Path 80" d="M2586.458,651.985h-5.238l.367-1.889h5.238Z" transform="translate(-2581.22 -650.096)" fill="#c95838"/>
          <path id="Path_81" data-name="Path 81" d="M2750.59,652.156h-5.238l.366-1.889h5.238Z" transform="translate(-2683.208 -650.202)" fill="#fff"/>
        </g>
        <g id="Group_7" data-name="Group 7" transform="translate(9.703 31.27)">
          <path id="Path_82" data-name="Path 82" d="M2600.768,674.278H2597.8l.366-1.889h2.966Z" transform="translate(-2590.4 -672.389)" fill="#d1a38c"/>
          <path id="Path_83" data-name="Path 83" d="M2626.975,674.278h-15.839l.367-1.889h15.839Z" transform="translate(-2598.684 -672.389)" fill="#ccb6b6"/>
          <path id="Path_84" data-name="Path 84" d="M2678.346,674.278h-15.461l.366-1.889h15.461Z" transform="translate(-2630.841 -672.389)" fill="#632e29"/>
          <path id="Path_85" data-name="Path 85" d="M2731.761,674.278h-22.654l.366-1.889h22.655Z" transform="translate(-2659.561 -672.389)" fill="#632e29"/>
          <path id="Path_86" data-name="Path 86" d="M2583.488,674.278h-5.238l.367-1.889h5.238Z" transform="translate(-2578.25 -672.389)" fill="#c95838"/>
          <path id="Path_87" data-name="Path 87" d="M2778.876,674.278h-5.238l.367-1.889h5.238Z" transform="translate(-2699.659 -672.389)" fill="#fff"/>
        </g>
        <g id="Group_8" data-name="Group 8" transform="translate(3.981 53.85)">
          <path id="Path_88" data-name="Path 88" d="M2586.519,733.914h-2.966l.366-1.889h2.966Z" transform="translate(-2575.825 -732.025)" fill="#d1a38c"/>
          <path id="Path_89" data-name="Path 89" d="M2624.463,733.914h-27.576l.366-1.889h27.577Z" transform="translate(-2584.11 -732.025)" fill="#ccb6b6"/>
          <path id="Path_90" data-name="Path 90" d="M2690.1,733.914h-15.46l.366-1.889h15.461Z" transform="translate(-2632.421 -732.025)" fill="#632e29"/>
          <path id="Path_91" data-name="Path 91" d="M2732.531,733.914h-11.674l.367-1.889H2732.9Z" transform="translate(-2661.141 -732.025)" fill="#632e29"/>
          <path id="Path_92" data-name="Path 92" d="M2769.869,733.914h-12.431l.366-1.889h12.432Z" transform="translate(-2683.871 -732.025)" fill="#632e29"/>
          <path id="Path_93" data-name="Path 93" d="M2568.378,733.914h-5.238l.367-1.889h5.238Z" transform="translate(-2563.14 -732.025)" fill="#c95838"/>
          <path id="Path_94" data-name="Path 94" d="M2801.265,733.914h-5.238l.366-1.889h5.238Z" transform="translate(-2707.85 -732.025)" fill="#fff"/>
        </g>
        <g id="Group_9" data-name="Group 9" transform="translate(2.574 62.099)">
          <path id="Path_95" data-name="Path 95" d="M2582.852,755.7h-2.966l.367-1.889h2.966Z" transform="translate(-2572.138 -753.812)" fill="#d1a38c"/>
          <path id="Path_96" data-name="Path 96" d="M2603.757,755.7h-10.539l.367-1.889h10.539Z" transform="translate(-2580.423 -753.812)" fill="#ccb6b6"/>
          <path id="Path_97" data-name="Path 97" d="M2654.545,755.7h-27.576l.366-1.889h27.576Z" transform="translate(-2601.395 -753.812)" fill="#632e29"/>
          <path id="Path_98" data-name="Path 98" d="M2712.7,755.7h-7.51l.367-1.889h7.509Z" transform="translate(-2649.998 -753.812)" fill="#632e29"/>
          <path id="Path_99" data-name="Path 99" d="M2744.716,755.7H2730.77l.366-1.889h13.946Z" transform="translate(-2665.894 -753.812)" fill="#632e29"/>
          <path id="Path_100" data-name="Path 100" d="M2564.661,755.7h-5.237l.366-1.889h5.238Z" transform="translate(-2559.424 -753.812)" fill="#c95838"/>
          <path id="Path_101" data-name="Path 101" d="M2780.286,755.7h-5.238l.366-1.889h5.238Z" transform="translate(-2693.407 -753.812)" fill="#fff"/>
        </g>
        <g id="Group_10" data-name="Group 10" transform="translate(3.67 7.78)">
          <path id="Path_102" data-name="Path 102" d="M2585.139,612.238h-2.966l.366-1.889h2.966Z" transform="translate(-2574.656 -610.35)" fill="#d1a38c"/>
          <path id="Path_103" data-name="Path 103" d="M2623.083,612.238h-27.576l.367-1.889h27.577Z" transform="translate(-2582.94 -610.35)" fill="#ccb6b6"/>
          <path id="Path_104" data-name="Path 104" d="M2708.226,612.238h-29.47l.367-1.889h29.469Z" transform="translate(-2634.67 -610.35)" fill="#632e29"/>
          <path id="Path_105" data-name="Path 105" d="M2567.555,612.238h-5.238l.367-1.889h5.238Z" transform="translate(-2562.317 -610.35)" fill="#c95838"/>
          <path id="Path_106" data-name="Path 106" d="M2767.763,612.238h-5.238l.367-1.889h5.238Z" transform="translate(-2686.721 -610.35)" fill="#fff"/>
        </g>
        <g id="Group_11" data-name="Group 11" transform="translate(16.243 39.243)">
          <path id="Path_107" data-name="Path 107" d="M2598.49,695.336h-2.965l.367-1.889h2.966Z" transform="translate(-2595.524 -693.448)" fill="#d1a38c"/>
          <path id="Path_108" data-name="Path 108" d="M2615.61,695.336h-6.752l.367-1.889h6.752Z" transform="translate(-2603.809 -693.448)" fill="#ccb6b6"/>
          <path id="Path_109" data-name="Path 109" d="M2715.52,695.336h-23.412l.367-1.889h23.412Z" transform="translate(-2655.539 -693.448)" fill="#632e29"/>
          <path id="Path_110" data-name="Path 110" d="M2653.808,695.336h-19.625l.367-1.889h19.625Z" transform="translate(-2619.546 -693.448)" fill="#632e29"/>
          <path id="Path_111" data-name="Path 111" d="M2764.856,695.336h-5.237l.367-1.889h5.237Z" transform="translate(-2697.489 -693.448)" fill="#fff"/>
        </g>
        <path id="Path_112" data-name="Path 112" d="M2577.125,632.153h-5.238l.366-1.889h5.238Z" transform="translate(-2564.594 -614.944)" fill="#c95838"/>
        <path id="Path_113" data-name="Path 113" d="M2580.93,694.981h-5.238l.366-1.889h5.238Z" transform="translate(-2566.958 -653.984)" fill="#c95838"/>
        <path id="Path_114" data-name="Path 114" d="M2557.862,713.747h-5.238l.367-1.889h5.238Z" transform="translate(-2552.625 -665.644)" fill="#c95838"/>
      </g>
      <g id="Group_19" data-name="Group 19" transform="translate(2211.507 315.074)">
        <path id="Path_115" data-name="Path 115" d="M2612.348,428.439a4.523,4.523,0,0,1-3.481-1.655,4.852,4.852,0,0,1-1.024-4.007l9.173-54.41a4.642,4.642,0,0,1,4.505-3.846h91.062a4.52,4.52,0,0,1,3.481,1.655,4.851,4.851,0,0,1,1.025,4.007l-9.931,54.41a4.643,4.643,0,0,1-4.505,3.847Zm9.173-63.539a4.264,4.264,0,0,0-4.134,3.537l-9.173,54.41a4.473,4.473,0,0,0,.944,3.7,4.143,4.143,0,0,0,3.189,1.518h90.305a4.265,4.265,0,0,0,4.134-3.538l9.93-54.41a4.475,4.475,0,0,0-.944-3.7,4.143,4.143,0,0,0-3.19-1.518Z" transform="translate(-2603.347 -360.294)" fill="#5154a6"/>
        <path id="Path_116" data-name="Path 116" d="M2706.4,358.252l-10.723,55.056a4.116,4.116,0,0,1-4.04,3.328h-91.416a4.112,4.112,0,0,1-4.036-4.9l1.057-5.422,9.666-49.634a4.116,4.116,0,0,1,4.04-3.324h91.416A4.11,4.11,0,0,1,2706.4,358.252Z" transform="translate(-2596.111 -353.356)" fill="#401d1d"/>
        <g id="Group_18" data-name="Group 18" transform="translate(9.26 6.233)">
          <g id="Group_13" data-name="Group 13" transform="translate(8.992)">
            <path id="Path_117" data-name="Path 117" d="M2669.232,371.707h-2.966l.367-1.889h2.966Z" transform="translate(-2657.957 -369.818)" fill="#a5c4d9"/>
            <path id="Path_118" data-name="Path 118" d="M2650.313,371.707h-5.995l.367-1.889h5.995Z" transform="translate(-2644.318 -369.818)" fill="#a5c4d9"/>
            <path id="Path_119" data-name="Path 119" d="M2695.439,371.707H2679.6l.366-1.889h15.839Z" transform="translate(-2666.241 -369.818)" fill="#a5c4d9"/>
            <path id="Path_120" data-name="Path 120" d="M2747.189,371.707H2731.35l.367-1.889h15.839Z" transform="translate(-2698.398 -369.818)" fill="#a5c4d9"/>
            <path id="Path_121" data-name="Path 121" d="M2797.689,371.707H2781.85l.367-1.889h15.839Z" transform="translate(-2729.777 -369.818)" fill="#a5c4d9"/>
          </g>
          <g id="Group_14" data-name="Group 14" transform="translate(9.4 23.913)">
            <path id="Path_122" data-name="Path 122" d="M2671.161,434.864H2668.2l.367-1.889h2.966Z" transform="translate(-2659.563 -432.976)" fill="#a5c4d9"/>
            <path id="Path_123" data-name="Path 123" d="M2689.037,434.864h-7.509l.366-1.889h7.51Z" transform="translate(-2667.847 -432.976)" fill="#a5c4d9"/>
            <path id="Path_124" data-name="Path 124" d="M2729.389,434.864h-18.111l.366-1.889h18.111Z" transform="translate(-2686.333 -432.976)" fill="#a5c4d9"/>
            <path id="Path_125" data-name="Path 125" d="M2771.629,434.864h-7.13l.366-1.889H2772Z" transform="translate(-2719.403 -432.976)" fill="#a5c4d9"/>
            <path id="Path_126" data-name="Path 126" d="M2795.453,434.864h-6.374l.367-1.889h6.374Z" transform="translate(-2734.677 -432.976)" fill="#a5c4d9"/>
            <path id="Path_127" data-name="Path 127" d="M2651.39,434.864H2645.4l.366-1.889h6Z" transform="translate(-2645.395 -432.976)" fill="#a5c4d9"/>
          </g>
          <g id="Group_15" data-name="Group 15" transform="translate(0 46.576)">
            <path id="Path_128" data-name="Path 128" d="M2646.248,494.721h-2.966l.367-1.889h2.966Z" transform="translate(-2634.682 -492.832)" fill="#a5c4d9"/>
            <path id="Path_129" data-name="Path 129" d="M2684.192,494.721h-27.577l.367-1.889h27.577Z" transform="translate(-2642.967 -492.832)" fill="#a5c4d9"/>
            <path id="Path_130" data-name="Path 130" d="M2749.826,494.721h-15.46l.367-1.889h15.46Z" transform="translate(-2691.279 -492.832)" fill="#a5c4d9"/>
            <path id="Path_131" data-name="Path 131" d="M2787.717,494.721h-7.131l.367-1.889h7.131Z" transform="translate(-2719.999 -492.832)" fill="#a5c4d9"/>
            <path id="Path_132" data-name="Path 132" d="M2626.563,494.721h-5.995l.367-1.889h5.995Z" transform="translate(-2620.568 -492.832)" fill="#a5c4d9"/>
          </g>
          <g id="Group_16" data-name="Group 16" transform="translate(7.102 10.052)">
            <path id="Path_133" data-name="Path 133" d="M2665.163,398.256H2662.2l.366-1.889h2.966Z" transform="translate(-2653.537 -396.367)" fill="#a5c4d9"/>
            <path id="Path_134" data-name="Path 134" d="M2684.175,398.256h-8.645l.367-1.889h8.645Z" transform="translate(-2661.822 -396.367)" fill="#a5c4d9"/>
            <path id="Path_135" data-name="Path 135" d="M2740.522,398.256H2708.78l.367-1.889h31.741Z" transform="translate(-2682.483 -396.367)" fill="#a5c4d9"/>
            <path id="Path_136" data-name="Path 136" d="M2645.32,398.256h-5.995l.367-1.889h5.995Z" transform="translate(-2639.325 -396.367)" fill="#a5c4d9"/>
          </g>
          <g id="Group_17" data-name="Group 17" transform="translate(6.362 37.05)">
            <path id="Path_137" data-name="Path 137" d="M2663.231,469.56h-2.966l.366-1.889h2.966Z" transform="translate(-2651.596 -467.672)" fill="#a5c4d9"/>
            <path id="Path_138" data-name="Path 138" d="M2686.408,469.56H2673.6l.367-1.889h12.81Z" transform="translate(-2659.881 -467.672)" fill="#a5c4d9"/>
            <path id="Path_139" data-name="Path 139" d="M2767.386,469.56h-10.538l.367-1.889h10.538Z" transform="translate(-2711.611 -467.672)" fill="#a5c4d9"/>
            <path id="Path_140" data-name="Path 140" d="M2728.49,469.56h-13.568l.367-1.889h13.567Z" transform="translate(-2685.559 -467.672)" fill="#a5c4d9"/>
            <path id="Path_141" data-name="Path 141" d="M2806.509,469.56h-13.568l.367-1.889h13.567Z" transform="translate(-2734.038 -467.672)" fill="#a5c4d9"/>
            <path id="Path_142" data-name="Path 142" d="M2643.365,469.56h-6l.367-1.889h5.995Z" transform="translate(-2637.37 -467.672)" fill="#a5c4d9"/>
          </g>
          <path id="Path_143" data-name="Path 143" d="M2656.727,417.832h-5.995l.366-1.889h6Z" transform="translate(-2639.311 -398.479)" fill="#a5c4d9"/>
          <path id="Path_144" data-name="Path 144" d="M2642.109,452.582h-5.995l.366-1.889h6Z" transform="translate(-2630.228 -420.072)" fill="#a5c4d9"/>
        </g>
      </g>
      <g id="Group_23" data-name="Group 23" transform="translate(2139.367 360.282)">
        <g id="Group_20" data-name="Group 20" transform="translate(0 0)">
          <path id="Path_145" data-name="Path 145" d="M2461.934,496.1l-14-6.33H2409.8a4.22,4.22,0,0,1-4.141-5.027l1.647-8.578a4.228,4.228,0,0,1,4.142-3.414h54.015a4.22,4.22,0,0,1,4.142,5.026l-1.648,8.578a4.228,4.228,0,0,1-4.142,3.414h-3.375Zm-50.487-22.969a3.847,3.847,0,0,0-3.77,3.107l-1.647,8.578a3.841,3.841,0,0,0,3.77,4.576h38.219l13.37,6.046-1.427-6.046h3.854a3.848,3.848,0,0,0,3.77-3.107l1.647-8.579a3.841,3.841,0,0,0-3.77-4.576Z" transform="translate(-2405.58 -472.756)" fill="#5154a6"/>
        </g>
        <g id="Group_22" data-name="Group 22" transform="translate(13.413 6.468)">
          <g id="Group_21" data-name="Group 21">
            <path id="Path_146" data-name="Path 146" d="M2449.279,493.072h-8.274l.628-3.234h8.274Z" transform="translate(-2441.005 -489.838)" fill="#a5c4d9"/>
            <path id="Path_147" data-name="Path 147" d="M2499.6,493.072H2476.06l.628-3.234h23.543Z" transform="translate(-2462.787 -489.838)" fill="#a5c4d9"/>
          </g>
        </g>
      </g>
      <g id="Group_27" data-name="Group 27" transform="translate(2337.478 302.707)">
        <g id="Group_24" data-name="Group 24">
          <path id="Path_148" data-name="Path 148" d="M2936.651,344.067l2.264-6.357h-5.877a4.22,4.22,0,0,1-4.142-5.026l1.647-8.578a4.227,4.227,0,0,1,4.142-3.414H2988.7a4.219,4.219,0,0,1,4.142,5.026l-1.647,8.578a4.227,4.227,0,0,1-4.142,3.414h-35.58Zm-1.966-23a3.848,3.848,0,0,0-3.77,3.107l-1.647,8.578a3.841,3.841,0,0,0,3.77,4.576h6.414l-2.154,6.046,14.1-6.046h35.658a3.848,3.848,0,0,0,3.77-3.107l1.647-8.578a3.84,3.84,0,0,0-3.77-4.576Z" transform="translate(-2928.817 -320.692)" fill="#5154a6"/>
        </g>
        <g id="Group_26" data-name="Group 26" transform="translate(13.505 5.747)">
          <g id="Group_25" data-name="Group 25">
            <path id="Path_149" data-name="Path 149" d="M3022.7,339.106h-23.543l.628-3.234h23.543Z" transform="translate(-2986.032 -335.871)" fill="#a5c4d9"/>
            <path id="Path_150" data-name="Path 150" d="M2974,339.182h-9.511l.582-3h9.511Z" transform="translate(-2964.485 -336.067)" fill="#a5c4d9"/>
          </g>
        </g>
      </g>
      <path id="Path_151" data-name="Path 151" d="M2835.789,562v.011l-1.045,5.377-18.2,93.445a4.065,4.065,0,0,1-3.994,3.29h-.193l20.563-106.595A4.069,4.069,0,0,1,2835.789,562Z" transform="translate(-518.973 -165.148)" fill="#b36242"/>
      <path id="Path_152" data-name="Path 152" d="M2947.485,927.506l-11.18-.193-.8-4.237,11.336.2Z" transform="translate(-595.495 -392.291)" fill="#e8dfdf"/>
      <g id="Group_34" data-name="Group 34" transform="translate(2298.597 374.775)">
        <path id="Path_153" data-name="Path 153" d="M2927.975,863.966c-1.079-.027-2.162-.061-3.245-.08-4.157-.069-8.318.065-12.335,1.439a1.966,1.966,0,0,0-.413.195q-1.391-7.468-2.787-14.935-.659-3.513-1.31-7.026-1.7-9.087-3.393-18.169a32.162,32.162,0,0,0,3.836-.115c1.4-.122,10.862-.271,12.316-.582.034.176.064.352.1.528q1.721,9.218,3.442,18.433c.114.6.223,1.2.338,1.8q.38,2.049.761,4.094Q2926.634,856.76,2927.975,863.966Z" transform="translate(-2874.821 -705.934)" fill="#f28f68"/>
        <path id="Path_154" data-name="Path 154" d="M2926.835,858.976q-6.105-.224-12.211-.168c-1.363.011-2.73.034-4.089.073q.653,3.513,1.31,7.026,1.88-.144,3.763-.276,4.7-.333,9.413-.6c.969-.053,1.942-.107,2.912-.157Q2927.388,861.923,2926.835,858.976Z" transform="translate(-2878.576 -727.125)" fill="#401d1d"/>
        <path id="Path_155" data-name="Path 155" d="M2939.9,515.559l-18.417,97.164-5.6,29.207a3.769,3.769,0,0,1-3.692,3.071l-.53,0-85.539-.761L2851.207,513.1a2.524,2.524,0,0,1,2.469-2.063h82.537a3.548,3.548,0,0,1,.784.087A3.8,3.8,0,0,1,2939.9,515.559Z" transform="translate(-2826.126 -511.034)" fill="#f28f68"/>
        <path id="Path_156" data-name="Path 156" d="M2911.98,645.706l-80.083-.765,24.068-127.153h80.083Z" transform="translate(-2829.712 -515.231)" fill="#fff"/>
        <path id="Path_157" data-name="Path 157" d="M3080.281,515.7l-24.017,126.37c.021,1.946-.793,3.562-3.692,3.073l-.53,0,25.331-133.878A3.8,3.8,0,0,1,3080.281,515.7Z" transform="translate(-2966.504 -511.176)" fill="#b36242"/>
        <path id="Path_158" data-name="Path 158" d="M2914.467,928.638l-16.1-.2-15.451-.022-.8-4.286,15.451.026,16.258.2Z" transform="translate(-2860.916 -767.724)" fill="#b36242"/>
        <path id="Path_159" data-name="Path 159" d="M2953.661,888.268c-1.079-.027-2.162-.061-3.245-.08l-4.585-24.385,3.241.057c.254,1.366,1.644,8.627,1.9,9.993Q2952.321,881.062,2953.661,888.268Z" transform="translate(-2900.508 -730.236)" fill="#b36242"/>
        <g id="Group_32" data-name="Group 32" transform="translate(20.891 12.941)">
          <g id="Group_28" data-name="Group 28" transform="translate(17.387)">
            <path id="Path_160" data-name="Path 160" d="M2949.422,547.121h-5.616l.384-1.907h5.616Z" transform="translate(-2937.527 -545.214)" fill="#b8a59c"/>
            <path id="Path_161" data-name="Path 161" d="M2974.285,547.121H2964.5l.384-1.907h9.781Z" transform="translate(-2950.388 -545.214)" fill="#632e29"/>
            <path id="Path_162" data-name="Path 162" d="M3029.847,547.121h-9.781l.384-1.907h9.781Z" transform="translate(-2984.914 -545.214)" fill="#632e29"/>
            <path id="Path_163" data-name="Path 163" d="M3003.62,547.121h-6.752l.384-1.907H3004Z" transform="translate(-2970.499 -545.214)" fill="#ccb6b6"/>
            <path id="Path_164" data-name="Path 164" d="M2930.947,547.163h-3.723l.384-1.887h3.723Z" transform="translate(-2927.223 -545.253)" fill="#c95838"/>
            <path id="Path_165" data-name="Path 165" d="M3055.968,547.127h-3.723l.384-1.887h3.723Z" transform="translate(-3004.908 -545.231)" fill="#fff"/>
          </g>
          <g id="Group_29" data-name="Group 29" transform="translate(14.86 15.845)">
            <path id="Path_166" data-name="Path 166" d="M2943.332,588.968h-5.616l.384-1.907h5.616Z" transform="translate(-2931.216 -587.061)" fill="#b8a59c"/>
            <path id="Path_167" data-name="Path 167" d="M2966.68,588.968h-8.267l.384-1.907h8.267Z" transform="translate(-2944.077 -587.061)" fill="#632e29"/>
            <path id="Path_168" data-name="Path 168" d="M3020.019,588.968h-6.752l.384-1.907h6.752Z" transform="translate(-2978.162 -587.061)" fill="#b8a59c"/>
            <path id="Path_169" data-name="Path 169" d="M2993.946,588.968h-9.4l.384-1.907h9.4Z" transform="translate(-2960.314 -587.061)" fill="#632e29"/>
            <path id="Path_170" data-name="Path 170" d="M2924.273,588.975h-3.723l.384-1.887h3.723Z" transform="translate(-2920.55 -587.078)" fill="#c95838"/>
            <path id="Path_171" data-name="Path 171" d="M3040.9,589.108h-3.723l.384-1.887h3.723Z" transform="translate(-2993.02 -587.161)" fill="#fff"/>
          </g>
          <g id="Group_30" data-name="Group 30" transform="translate(10.375 38.638)">
            <path id="Path_172" data-name="Path 172" d="M2932.246,649.168h-5.616l.384-1.907h5.616Z" transform="translate(-2919.843 -647.261)" fill="#b8a59c"/>
            <path id="Path_173" data-name="Path 173" d="M2957.109,649.168h-9.781l.384-1.907h9.781Z" transform="translate(-2932.704 -647.261)" fill="#632e29"/>
            <path id="Path_174" data-name="Path 174" d="M3017.973,649.168h-15.082l.384-1.907h15.082Z" transform="translate(-2967.229 -647.261)" fill="#632e29"/>
            <path id="Path_175" data-name="Path 175" d="M2986.445,649.168h-6.752l.384-1.907h6.752Z" transform="translate(-2952.815 -647.261)" fill="#ccb6b6"/>
            <path id="Path_176" data-name="Path 176" d="M2912.427,649.174H2908.7l.384-1.887h3.723Z" transform="translate(-2908.704 -647.278)" fill="#c95838"/>
            <path id="Path_177" data-name="Path 177" d="M3052.74,649.174h-3.723l.384-1.887h3.723Z" transform="translate(-2995.891 -647.278)" fill="#fff"/>
          </g>
          <path id="Path_178" data-name="Path 178" d="M2920.029,711.883h-18.111l.384-1.907h18.111Z" transform="translate(-2894.112 -647.593)" fill="#a5c4d9"/>
          <path id="Path_179" data-name="Path 179" d="M2906.416,773.755H2888.3l.384-1.907H2906.8Z" transform="translate(-2885.653 -686.039)" fill="#a5c4d9"/>
          <path id="Path_180" data-name="Path 180" d="M2896.763,817.813H2881.3l.384-1.907h15.461Z" transform="translate(-2881.302 -713.415)" fill="#a5c4d9"/>
          <path id="Path_181" data-name="Path 181" d="M2912.364,731.727h-13.946l.384-1.907h13.946Z" transform="translate(-2891.938 -659.924)" fill="#a5c4d9"/>
          <path id="Path_182" data-name="Path 182" d="M2911.219,751.7h-16.975l.384-1.907H2911.6Z" transform="translate(-2889.344 -672.334)" fill="#a5c4d9"/>
          <path id="Path_183" data-name="Path 183" d="M2902.918,797.651h-16.975l.384-1.907H2903.3Z" transform="translate(-2884.186 -700.887)" fill="#a5c4d9"/>
          <g id="Group_31" data-name="Group 31" transform="translate(9.273 46.999)">
            <path id="Path_184" data-name="Path 184" d="M2924.843,671.5H2921.5l.384-1.907h3.345Z" transform="translate(-2915.552 -669.497)" fill="#b8a59c"/>
            <path id="Path_185" data-name="Path 185" d="M2981,671.5h-5.237l.384-1.907h5.238Z" transform="translate(-2949.268 -669.497)" fill="#632e29"/>
            <path id="Path_186" data-name="Path 186" d="M2950.235,671.5h-11.674l.384-1.907h11.674Z" transform="translate(-2926.154 -669.497)" fill="#ccb6b6"/>
            <path id="Path_187" data-name="Path 187" d="M2909.516,671.23h-3.723l.384-1.887h3.723Z" transform="translate(-2905.793 -669.344)" fill="#c95838"/>
            <path id="Path_188" data-name="Path 188" d="M2998.383,671.5h-3.723l.384-1.887h3.723Z" transform="translate(-2961.012 -669.513)" fill="#fff"/>
          </g>
          <path id="Path_189" data-name="Path 189" d="M2935.741,567.979h-3.723l.384-1.887h3.723Z" transform="translate(-2912.816 -558.187)" fill="#c95838"/>
          <path id="Path_190" data-name="Path 190" d="M2924.082,609.861h-3.723l.384-1.887h3.723Z" transform="translate(-2905.571 -584.212)" fill="#c95838"/>
          <path id="Path_191" data-name="Path 191" d="M2933.105,629.029h-3.723l.384-1.887h3.723Z" transform="translate(-2911.178 -596.122)" fill="#c95838"/>
          <path id="Path_192" data-name="Path 192" d="M2906.44,691.747h-3.723l.384-1.887h3.723Z" transform="translate(-2894.608 -635.093)" fill="#c95838"/>
        </g>
        <g id="Group_33" data-name="Group 33" transform="translate(13.518 12.933)">
          <path id="Path_193" data-name="Path 193" d="M2910.632,547.076h2.966l.387-1.886h-2.966Z" transform="translate(-2892.154 -545.19)" fill="#f28f68"/>
          <path id="Path_194" data-name="Path 194" d="M2907.577,567.21h2.966l.387-1.886h-2.966Z" transform="translate(-2890.256 -557.701)" fill="#f28f68"/>
          <path id="Path_195" data-name="Path 195" d="M2902.937,588.978h2.966l.388-1.886h-2.966Z" transform="translate(-2887.373 -571.228)" fill="#f28f68"/>
          <path id="Path_196" data-name="Path 196" d="M2899.881,609.112h2.966l.387-1.885h-2.966Z" transform="translate(-2885.474 -583.738)" fill="#f28f68"/>
          <path id="Path_197" data-name="Path 197" d="M2895.679,628.956h2.966l.387-1.886h-2.966Z" transform="translate(-2882.863 -596.069)" fill="#f28f68"/>
          <path id="Path_198" data-name="Path 198" d="M2892.624,649.09h2.966l.387-1.886h-2.966Z" transform="translate(-2880.965 -608.579)" fill="#f28f68"/>
          <path id="Path_199" data-name="Path 199" d="M2887.984,670.841h2.966l.387-1.886h-2.966Z" transform="translate(-2878.081 -622.095)" fill="#f28f68"/>
          <path id="Path_200" data-name="Path 200" d="M2884.131,691.9h2.966l.388-1.885h-2.966Z" transform="translate(-2875.687 -635.18)" fill="#f28f68"/>
          <path id="Path_201" data-name="Path 201" d="M2881.077,712.033h2.966l.387-1.886h-2.966Z" transform="translate(-2873.789 -647.69)" fill="#f28f68"/>
          <path id="Path_202" data-name="Path 202" d="M2876.874,731.877h2.966l.387-1.885h-2.966Z" transform="translate(-2871.178 -660.021)" fill="#f28f68"/>
          <path id="Path_203" data-name="Path 203" d="M2873.819,752.01h2.966l.387-1.886h-2.966Z" transform="translate(-2869.28 -672.531)" fill="#f28f68"/>
          <path id="Path_204" data-name="Path 204" d="M2869.179,773.762h2.966l.388-1.886h-2.966Z" transform="translate(-2866.396 -686.047)" fill="#f28f68"/>
          <path id="Path_205" data-name="Path 205" d="M2864.884,797.686h2.966l.387-1.886h-2.966Z" transform="translate(-2863.728 -700.913)" fill="#f28f68"/>
          <path id="Path_206" data-name="Path 206" d="M2861.83,817.819h2.966l.387-1.886h-2.966Z" transform="translate(-2861.83 -713.423)" fill="#f28f68"/>
        </g>
      </g>
      <g id="Group_37" data-name="Group 37" transform="translate(2333.775 339.628)">
        <path id="Path_207" data-name="Path 207" d="M2934.385,445.015a4.521,4.521,0,0,1-3.481-1.655,4.851,4.851,0,0,1-1.024-4.007L2931.136,429a4.643,4.643,0,0,1,4.506-3.846h68.344a4.52,4.52,0,0,1,3.481,1.655,4.849,4.849,0,0,1,1.025,4.007l-2.014,10.349a4.644,4.644,0,0,1-4.506,3.846Zm1.257-19.478a4.265,4.265,0,0,0-4.134,3.538l-1.257,10.349a4.473,4.473,0,0,0,.944,3.7,4.142,4.142,0,0,0,3.189,1.518h67.587a4.264,4.264,0,0,0,4.134-3.538l2.014-10.349a4.475,4.475,0,0,0-.944-3.7,4.145,4.145,0,0,0-3.19-1.518Z" transform="translate(-2925.72 -422.526)" fill="#5154a6"/>
        <path id="Path_208" data-name="Path 208" d="M2998.694,422.78l-2.1,10.655a3.84,3.84,0,0,1-3.767,3.1h-69.948a3.838,3.838,0,0,1-3.767-4.574l2.1-10.655a3.842,3.842,0,0,1,3.771-3.1h69.944A3.841,3.841,0,0,1,2998.694,422.78Z" transform="translate(-2919.035 -418.206)" fill="#401d1d"/>
        <g id="Group_35" data-name="Group 35" transform="translate(10.519 4.865)">
          <path id="Path_209" data-name="Path 209" d="M2971.578,432.945h-2.966l.367-1.889h2.966Z" transform="translate(-2960.36 -431.056)" fill="#a5c4d9"/>
          <path id="Path_210" data-name="Path 210" d="M2989.455,432.945h-7.509l.366-1.889h7.51Z" transform="translate(-2968.646 -431.056)" fill="#a5c4d9"/>
          <path id="Path_211" data-name="Path 211" d="M3025.807,432.945H3007.7l.367-1.889h18.111Z" transform="translate(-2984.646 -431.056)" fill="#a5c4d9"/>
          <path id="Path_212" data-name="Path 212" d="M3075.821,432.945H3061.5l.367-1.889h14.324Z" transform="translate(-3018.076 -431.056)" fill="#a5c4d9"/>
          <path id="Path_213" data-name="Path 213" d="M2952.813,433.1h-5.995l.367-1.889h5.995Z" transform="translate(-2946.818 -431.154)" fill="#a5c4d9"/>
        </g>
        <g id="Group_36" data-name="Group 36" transform="translate(9.667 10.672)">
          <path id="Path_214" data-name="Path 214" d="M2969.364,448.76H2966.4l.367-1.889h2.966Z" transform="translate(-2958.133 -446.69)" fill="#a5c4d9"/>
          <path id="Path_215" data-name="Path 215" d="M2987.241,448.76h-7.51l.367-1.889h7.51Z" transform="translate(-2966.418 -446.69)" fill="#a5c4d9"/>
          <path id="Path_216" data-name="Path 216" d="M3023.593,448.76h-18.111l.366-1.889h18.111Z" transform="translate(-2982.418 -446.69)" fill="#a5c4d9"/>
          <path id="Path_217" data-name="Path 217" d="M3073.607,448.76h-14.324l.366-1.889h14.325Z" transform="translate(-3015.849 -446.69)" fill="#a5c4d9"/>
          <path id="Path_218" data-name="Path 218" d="M2950.563,448.281h-5.995l.367-1.889h5.995Z" transform="translate(-2944.568 -446.392)" fill="#a5c4d9"/>
        </g>
      </g>
      <g id="Group_38" data-name="Group 38" transform="translate(2429.781 348.896)">
        <path id="Path_219" data-name="Path 219" d="M3183.181,455.438h-7c-2.416,0-3.956-1.569-3.494-3.94l1.054-5.709a3.841,3.841,0,0,1,3.77-3.106l6.558.047c2.416,0,3.728,1.379,3.266,3.751l-1.151,6.184C3185.828,454.469,3185.019,455.438,3183.181,455.438Z" transform="translate(-3172.601 -442.683)" fill="#a5c4d9"/>
        <path id="Path_220" data-name="Path 220" d="M3188.693,448.666l-2.537-.053-2.607,2.618-2.132-2.592h-2.376l3.207,3.9-4.27,4.287,2.536.053,2.9-2.916,2.376,2.889h2.376l-3.451-4.2Z" transform="translate(-3175.942 -446.368)" fill="#fff"/>
      </g>
      <g id="Group_39" data-name="Group 39" transform="translate(2308.915 291.748)">
        <path id="Path_221" data-name="Path 221" d="M2863.177,304.5h-5.957a3.841,3.841,0,0,1-3.77-4.575l.981-5.073a3.841,3.841,0,0,1,3.77-3.106h5.957a3.84,3.84,0,0,1,3.77,4.575l-.981,5.073A3.841,3.841,0,0,1,2863.177,304.5Z" transform="translate(-2853.377 -291.748)" fill="#a5c4d9"/>
        <path id="Path_222" data-name="Path 222" d="M2868.439,313.783l-8.938-.146.558-1.857,8.938.146Z" transform="translate(-2857.182 -304.196)" fill="#fff"/>
      </g>
      <g id="Group_40" data-name="Group 40" transform="translate(2179.87 404.598)">
        <path id="Path_223" data-name="Path 223" d="M2540.023,589.8l-.367,1.889h2.966l.367-1.889Z" transform="translate(-2529.394 -589.801)" fill="#f28f68"/>
        <path id="Path_224" data-name="Path 224" d="M2536.823,611.856h2.966l.366-1.889h-2.966Z" transform="translate(-2527.634 -602.332)" fill="#f28f68"/>
        <path id="Path_225" data-name="Path 225" d="M2533.839,631.732h2.966l.367-1.889h-2.966Z" transform="translate(-2525.78 -614.683)" fill="#f28f68"/>
        <path id="Path_226" data-name="Path 226" d="M2531.006,651.9h2.966l.367-1.889h-2.966Z" transform="translate(-2524.019 -627.214)" fill="#f28f68"/>
        <path id="Path_227" data-name="Path 227" d="M2526.6,673.7h2.966l.367-1.889h-2.966Z" transform="translate(-2521.284 -640.762)" fill="#f28f68"/>
        <path id="Path_228" data-name="Path 228" d="M2523.772,693.87h2.966l.366-1.889h-2.966Z" transform="translate(-2519.524 -653.293)" fill="#f28f68"/>
        <path id="Path_229" data-name="Path 229" d="M2519.788,713.747h2.966l.366-1.889h-2.966Z" transform="translate(-2517.048 -665.644)" fill="#f28f68"/>
        <path id="Path_230" data-name="Path 230" d="M2516.954,733.914h2.966l.367-1.889h-2.966Z" transform="translate(-2515.288 -678.175)" fill="#f28f68"/>
        <path id="Path_231" data-name="Path 231" d="M2512.553,755.7h2.966l.367-1.889h-2.966Z" transform="translate(-2512.553 -691.713)" fill="#f28f68"/>
      </g>
      <g id="Group_41" data-name="Group 41" transform="translate(2161.986 401.489)">
        <path id="Path_232" data-name="Path 232" d="M2484.632,581.588l-.366,1.889h2.966l.367-1.889Z" transform="translate(-2477.092 -581.588)" fill="#edb04f"/>
        <path id="Path_233" data-name="Path 233" d="M2481.432,603.643h2.966l.366-1.889H2481.8Z" transform="translate(-2475.331 -594.119)" fill="#edb04f"/>
        <path id="Path_234" data-name="Path 234" d="M2492.073,632.315h2.966l.366-1.889h-2.966Z" transform="translate(-2481.944 -611.935)" fill="#edb04f"/>
        <path id="Path_235" data-name="Path 235" d="M2489.24,652.482h2.966l.366-1.889h-2.966Z" transform="translate(-2480.183 -624.466)" fill="#edb04f"/>
        <path id="Path_236" data-name="Path 236" d="M2484.839,674.286h2.966l.367-1.889h-2.966Z" transform="translate(-2477.448 -638.015)" fill="#edb04f"/>
        <path id="Path_237" data-name="Path 237" d="M2482.006,694.453h2.966l.367-1.889h-2.966Z" transform="translate(-2475.688 -650.546)" fill="#edb04f"/>
        <path id="Path_238" data-name="Path 238" d="M2474.5,723.33h2.966l.367-1.889h-2.966Z" transform="translate(-2471.026 -668.489)" fill="#edb04f"/>
        <path id="Path_239" data-name="Path 239" d="M2471.67,743.5h2.966l.367-1.889h-2.966Z" transform="translate(-2469.265 -681.02)" fill="#edb04f"/>
        <path id="Path_240" data-name="Path 240" d="M2467.269,765.283h2.966l.367-1.889h-2.966Z" transform="translate(-2466.531 -694.558)" fill="#edb04f"/>
        <path id="Path_241" data-name="Path 241" d="M2483.733,616.1l-.4.651-.2.325a1.566,1.566,0,0,1-.2.326c-.133.08-.125-.026-.184-.154s-.11-.253-.158-.383a6.1,6.1,0,0,1-.2-.666c-.058-.237-.423-.137-.365.1a6.191,6.191,0,0,0,.347,1.034c.092.21.189.53.463.541s.428-.289.557-.5l.669-1.085C2484.189,616.082,2483.861,615.891,2483.733,616.1Z" transform="translate(-2475.696 -602.976)" fill="#edb04f"/>
        <path id="Path_242" data-name="Path 242" d="M2467.033,710.069l-.4.651-.2.325a1.608,1.608,0,0,1-.2.326c-.133.08-.125-.026-.185-.154s-.11-.254-.158-.383a6.107,6.107,0,0,1-.2-.666c-.057-.237-.423-.137-.365.1a6.248,6.248,0,0,0,.347,1.034c.092.21.189.53.463.541s.428-.289.557-.5l.669-1.085C2467.489,710.053,2467.161,709.862,2467.033,710.069Z" transform="translate(-2465.319 -661.367)" fill="#edb04f"/>
      </g>
      <path id="Path_243" data-name="Path 243" d="M2506.817,563.5q-1.891,8.985-3.714,17.989-7.054,34.775-13.1,69.739h-.378q1.613-9.343,3.3-18.67,6.259-34.621,13.51-69.058Z" transform="translate(-318.436 -168.86)" fill="#ccb6b6"/>
    </g>
  </g>
</svg>
